<mxfile host="Electron" modified="2023-04-06T08:38:14.490Z" agent="Mozilla/5.0 (Windows NT 10.0; Win64; x64) AppleWebKit/537.36 (KHTML, like Gecko) draw.io/21.1.2 Chrome/106.0.5249.199 Electron/21.4.3 Safari/537.36" etag="D5_OkUGTN9no2sLCZ0jc" version="21.1.2" type="device">
  <diagram name="Page-1" id="b5b7bab2-c9e2-2cf4-8b2a-24fd1a2a6d21">
    <mxGraphModel dx="989" dy="588" grid="1" gridSize="10" guides="1" tooltips="1" connect="1" arrows="1" fold="1" page="1" pageScale="1" pageWidth="827" pageHeight="1169" background="none" math="0" shadow="0">
      <root>
        <mxCell id="0" />
        <mxCell id="1" parent="0" />
        <mxCell id="6e0c8c40b5770093-72" value="" style="shape=folder;fontStyle=1;spacingTop=10;tabWidth=194;tabHeight=22;tabPosition=left;html=1;rounded=0;shadow=0;comic=0;labelBackgroundColor=none;strokeWidth=1;fillColor=none;fontFamily=Verdana;fontSize=10;align=center;" parent="1" vertex="1">
          <mxGeometry x="490" y="170" width="1001" height="940" as="geometry" />
        </mxCell>
        <mxCell id="6e0c8c40b5770093-6" value="" style="group" parent="1" vertex="1" connectable="0">
          <mxGeometry x="465.5" y="174.5" width="130" height="70" as="geometry" />
        </mxCell>
        <mxCell id="6e0c8c40b5770093-4" value="package" style="shape=folder;fontStyle=1;spacingTop=10;tabWidth=50;tabHeight=17;tabPosition=left;html=1;rounded=0;shadow=0;comic=0;labelBackgroundColor=none;strokeWidth=1;fontFamily=Verdana;fontSize=10;align=center;" parent="6e0c8c40b5770093-6" vertex="1">
          <mxGeometry width="130" height="70" as="geometry" />
        </mxCell>
        <mxCell id="6e0c8c40b5770093-5" value="" style="triangle;whiteSpace=wrap;html=1;rounded=0;shadow=0;comic=0;labelBackgroundColor=none;strokeWidth=1;fontFamily=Verdana;fontSize=10;align=center;rotation=-90;" parent="6e0c8c40b5770093-6" vertex="1">
          <mxGeometry x="100" y="25" width="15" height="20" as="geometry" />
        </mxCell>
        <mxCell id="6e0c8c40b5770093-7" value="" style="group" parent="1" vertex="1" connectable="0">
          <mxGeometry x="765.5" y="174.5" width="130" height="70" as="geometry" />
        </mxCell>
        <mxCell id="6e0c8c40b5770093-8" value="package" style="shape=folder;fontStyle=1;spacingTop=10;tabWidth=50;tabHeight=17;tabPosition=left;html=1;rounded=0;shadow=0;comic=0;labelBackgroundColor=none;strokeWidth=1;fontFamily=Verdana;fontSize=10;align=center;" parent="6e0c8c40b5770093-7" vertex="1">
          <mxGeometry width="130" height="70" as="geometry" />
        </mxCell>
        <mxCell id="6e0c8c40b5770093-9" value="" style="triangle;whiteSpace=wrap;html=1;rounded=0;shadow=0;comic=0;labelBackgroundColor=none;strokeWidth=1;fontFamily=Verdana;fontSize=10;align=center;rotation=-90;" parent="6e0c8c40b5770093-7" vertex="1">
          <mxGeometry x="100" y="25" width="15" height="20" as="geometry" />
        </mxCell>
        <mxCell id="6e0c8c40b5770093-18" value="" style="group" parent="1" vertex="1" connectable="0">
          <mxGeometry x="361.5" y="294.5" width="280" height="130" as="geometry" />
        </mxCell>
        <mxCell id="6e0c8c40b5770093-11" value="" style="shape=folder;fontStyle=1;spacingTop=10;tabWidth=123;tabHeight=24;tabPosition=left;html=1;rounded=0;shadow=0;comic=0;labelBackgroundColor=none;strokeWidth=1;fontFamily=Verdana;fontSize=10;align=center;" parent="6e0c8c40b5770093-18" vertex="1">
          <mxGeometry width="280" height="130" as="geometry" />
        </mxCell>
        <mxCell id="6e0c8c40b5770093-13" value="" style="triangle;whiteSpace=wrap;html=1;rounded=0;shadow=0;comic=0;labelBackgroundColor=none;strokeWidth=1;fontFamily=Verdana;fontSize=10;align=center;rotation=-90;" parent="6e0c8c40b5770093-18" vertex="1">
          <mxGeometry x="96" y="2" width="15" height="20" as="geometry" />
        </mxCell>
        <mxCell id="6e0c8c40b5770093-15" value="package" style="shape=folder;fontStyle=1;spacingTop=10;tabWidth=50;tabHeight=17;tabPosition=left;html=1;rounded=0;shadow=0;comic=0;labelBackgroundColor=none;strokeWidth=1;fontFamily=Verdana;fontSize=10;align=center;" parent="6e0c8c40b5770093-18" vertex="1">
          <mxGeometry x="18" y="40" width="112" height="70" as="geometry" />
        </mxCell>
        <mxCell id="6e0c8c40b5770093-17" value="package" style="shape=folder;fontStyle=1;spacingTop=10;tabWidth=50;tabHeight=17;tabPosition=left;html=1;rounded=0;shadow=0;comic=0;labelBackgroundColor=none;strokeWidth=1;fontFamily=Verdana;fontSize=10;align=center;" parent="6e0c8c40b5770093-18" vertex="1">
          <mxGeometry x="148" y="40" width="112" height="70" as="geometry" />
        </mxCell>
        <mxCell id="6e0c8c40b5770093-19" value="" style="group" parent="1" vertex="1" connectable="0">
          <mxGeometry x="685.5" y="298.5" width="280" height="130" as="geometry" />
        </mxCell>
        <mxCell id="6e0c8c40b5770093-20" value="" style="shape=folder;fontStyle=1;spacingTop=10;tabWidth=123;tabHeight=24;tabPosition=left;html=1;rounded=0;shadow=0;comic=0;labelBackgroundColor=none;strokeWidth=1;fontFamily=Verdana;fontSize=10;align=center;" parent="6e0c8c40b5770093-19" vertex="1">
          <mxGeometry width="280" height="130" as="geometry" />
        </mxCell>
        <mxCell id="6e0c8c40b5770093-21" value="" style="triangle;whiteSpace=wrap;html=1;rounded=0;shadow=0;comic=0;labelBackgroundColor=none;strokeWidth=1;fontFamily=Verdana;fontSize=10;align=center;rotation=-90;" parent="6e0c8c40b5770093-19" vertex="1">
          <mxGeometry x="96" y="2" width="15" height="20" as="geometry" />
        </mxCell>
        <mxCell id="6e0c8c40b5770093-22" value="package" style="shape=folder;fontStyle=1;spacingTop=10;tabWidth=50;tabHeight=17;tabPosition=left;html=1;rounded=0;shadow=0;comic=0;labelBackgroundColor=none;strokeWidth=1;fontFamily=Verdana;fontSize=10;align=center;" parent="6e0c8c40b5770093-19" vertex="1">
          <mxGeometry x="18" y="40" width="112" height="70" as="geometry" />
        </mxCell>
        <mxCell id="6e0c8c40b5770093-23" value="package" style="shape=folder;fontStyle=1;spacingTop=10;tabWidth=50;tabHeight=17;tabPosition=left;html=1;rounded=0;shadow=0;comic=0;labelBackgroundColor=none;strokeWidth=1;fontFamily=Verdana;fontSize=10;align=center;" parent="6e0c8c40b5770093-19" vertex="1">
          <mxGeometry x="148" y="40" width="112" height="70" as="geometry" />
        </mxCell>
        <mxCell id="6e0c8c40b5770093-30" value="" style="group" parent="1" vertex="1" connectable="0">
          <mxGeometry x="1045.5" y="294.5" width="230" height="480" as="geometry" />
        </mxCell>
        <mxCell id="6e0c8c40b5770093-24" value="" style="group" parent="6e0c8c40b5770093-30" vertex="1" connectable="0">
          <mxGeometry width="230" height="480" as="geometry" />
        </mxCell>
        <mxCell id="6e0c8c40b5770093-25" value="" style="shape=folder;fontStyle=1;spacingTop=10;tabWidth=123;tabHeight=24;tabPosition=left;html=1;rounded=0;shadow=0;comic=0;labelBackgroundColor=none;strokeWidth=1;fontFamily=Verdana;fontSize=10;align=center;" parent="6e0c8c40b5770093-24" vertex="1">
          <mxGeometry width="230" height="480" as="geometry" />
        </mxCell>
        <mxCell id="6e0c8c40b5770093-29" value="" style="triangle;whiteSpace=wrap;html=1;rounded=0;shadow=0;comic=0;labelBackgroundColor=none;strokeWidth=1;fontFamily=Verdana;fontSize=10;align=center;rotation=-90;" parent="6e0c8c40b5770093-24" vertex="1">
          <mxGeometry x="100" y="2" width="15" height="20" as="geometry" />
        </mxCell>
        <mxCell id="6e0c8c40b5770093-27" value="package" style="shape=folder;fontStyle=1;spacingTop=10;tabWidth=50;tabHeight=17;tabPosition=left;html=1;rounded=0;shadow=0;comic=0;labelBackgroundColor=none;strokeWidth=1;fontFamily=Verdana;fontSize=10;align=center;" parent="6e0c8c40b5770093-24" vertex="1">
          <mxGeometry x="59" y="79" width="112" height="70" as="geometry" />
        </mxCell>
        <mxCell id="6e0c8c40b5770093-31" value="package" style="shape=folder;fontStyle=1;spacingTop=10;tabWidth=50;tabHeight=17;tabPosition=left;html=1;rounded=0;shadow=0;comic=0;labelBackgroundColor=none;strokeWidth=1;fontFamily=Verdana;fontSize=10;align=center;" parent="6e0c8c40b5770093-24" vertex="1">
          <mxGeometry x="59" y="205" width="112" height="70" as="geometry" />
        </mxCell>
        <mxCell id="6e0c8c40b5770093-28" value="package" style="shape=folder;fontStyle=1;spacingTop=10;tabWidth=50;tabHeight=17;tabPosition=left;html=1;rounded=0;shadow=0;comic=0;labelBackgroundColor=none;strokeWidth=1;fontFamily=Verdana;fontSize=10;align=center;" parent="6e0c8c40b5770093-24" vertex="1">
          <mxGeometry x="59" y="340" width="112" height="70" as="geometry" />
        </mxCell>
        <mxCell id="6e0c8c40b5770093-67" style="edgeStyle=none;rounded=0;html=1;entryX=0.43;entryY=0.173;entryPerimeter=0;dashed=1;labelBackgroundColor=none;startFill=0;endArrow=open;endFill=0;endSize=10;fontFamily=Verdana;fontSize=10;" parent="1" source="6e0c8c40b5770093-33" target="6e0c8c40b5770093-47" edge="1">
          <mxGeometry relative="1" as="geometry" />
        </mxCell>
        <mxCell id="6e0c8c40b5770093-71" style="edgeStyle=elbowEdgeStyle;rounded=0;html=1;dashed=1;labelBackgroundColor=none;startFill=0;endArrow=open;endFill=0;endSize=10;fontFamily=Verdana;fontSize=10;elbow=vertical;" parent="1" source="6e0c8c40b5770093-33" target="6e0c8c40b5770093-25" edge="1">
          <mxGeometry relative="1" as="geometry" />
        </mxCell>
        <mxCell id="6e0c8c40b5770093-33" value="" style="shape=folder;fontStyle=1;spacingTop=10;tabWidth=123;tabHeight=24;tabPosition=left;html=1;rounded=0;shadow=0;comic=0;labelBackgroundColor=none;strokeColor=#000000;strokeWidth=1;fillColor=#ffffff;fontFamily=Verdana;fontSize=10;fontColor=#000000;align=center;" parent="1" vertex="1">
          <mxGeometry x="440.5" y="474.5" width="515" height="240" as="geometry" />
        </mxCell>
        <mxCell id="6e0c8c40b5770093-64" style="edgeStyle=elbowEdgeStyle;rounded=0;html=1;entryX=0.559;entryY=0.251;entryPerimeter=0;dashed=1;labelBackgroundColor=none;startFill=0;endArrow=open;endFill=0;endSize=10;fontFamily=Verdana;fontSize=10;" parent="1" source="6e0c8c40b5770093-42" target="6e0c8c40b5770093-44" edge="1">
          <mxGeometry relative="1" as="geometry" />
        </mxCell>
        <mxCell id="6e0c8c40b5770093-65" style="edgeStyle=none;rounded=0;html=1;dashed=1;labelBackgroundColor=none;startFill=0;endArrow=open;endFill=0;endSize=10;fontFamily=Verdana;fontSize=10;entryX=-0.003;entryY=0.411;entryPerimeter=0;" parent="1" source="6e0c8c40b5770093-42" target="6e0c8c40b5770093-45" edge="1">
          <mxGeometry relative="1" as="geometry" />
        </mxCell>
        <mxCell id="6e0c8c40b5770093-66" style="edgeStyle=none;rounded=0;html=1;dashed=1;labelBackgroundColor=none;startFill=0;endArrow=open;endFill=0;endSize=10;fontFamily=Verdana;fontSize=10;entryX=1.013;entryY=0.444;entryPerimeter=0;" parent="1" source="6e0c8c40b5770093-42" target="6e0c8c40b5770093-43" edge="1">
          <mxGeometry relative="1" as="geometry" />
        </mxCell>
        <mxCell id="6e0c8c40b5770093-42" value="package" style="shape=folder;fontStyle=1;spacingTop=10;tabWidth=50;tabHeight=17;tabPosition=left;html=1;rounded=0;shadow=0;comic=0;labelBackgroundColor=none;strokeColor=#000000;strokeWidth=1;fillColor=#ffffff;fontFamily=Verdana;fontSize=10;fontColor=#000000;align=center;" parent="1" vertex="1">
          <mxGeometry x="647.5" y="524.5" width="112" height="70" as="geometry" />
        </mxCell>
        <mxCell id="6e0c8c40b5770093-43" value="package" style="shape=folder;fontStyle=1;spacingTop=10;tabWidth=50;tabHeight=17;tabPosition=left;html=1;rounded=0;shadow=0;comic=0;labelBackgroundColor=none;strokeColor=#000000;strokeWidth=1;fillColor=#ffffff;fontFamily=Verdana;fontSize=10;fontColor=#000000;align=center;" parent="1" vertex="1">
          <mxGeometry x="483.5" y="624.5" width="112" height="70" as="geometry" />
        </mxCell>
        <mxCell id="6e0c8c40b5770093-44" value="package" style="shape=folder;fontStyle=1;spacingTop=10;tabWidth=50;tabHeight=17;tabPosition=left;html=1;rounded=0;shadow=0;comic=0;labelBackgroundColor=none;strokeColor=#000000;strokeWidth=1;fillColor=#ffffff;fontFamily=Verdana;fontSize=10;fontColor=#000000;align=center;" parent="1" vertex="1">
          <mxGeometry x="647.5" y="624.5" width="112" height="70" as="geometry" />
        </mxCell>
        <mxCell id="6e0c8c40b5770093-45" value="package" style="shape=folder;fontStyle=1;spacingTop=10;tabWidth=50;tabHeight=17;tabPosition=left;html=1;rounded=0;shadow=0;comic=0;labelBackgroundColor=none;strokeColor=#000000;strokeWidth=1;fillColor=#ffffff;fontFamily=Verdana;fontSize=10;fontColor=#000000;align=center;" parent="1" vertex="1">
          <mxGeometry x="799.5" y="624.5" width="112" height="70" as="geometry" />
        </mxCell>
        <mxCell id="6e0c8c40b5770093-68" style="edgeStyle=elbowEdgeStyle;rounded=0;html=1;entryX=0.628;entryY=0.26;entryPerimeter=0;dashed=1;labelBackgroundColor=none;startFill=0;endArrow=open;endFill=0;endSize=10;fontFamily=Verdana;fontSize=10;" parent="1" source="6e0c8c40b5770093-47" target="6e0c8c40b5770093-53" edge="1">
          <mxGeometry relative="1" as="geometry" />
        </mxCell>
        <mxCell id="6e0c8c40b5770093-69" style="edgeStyle=elbowEdgeStyle;rounded=0;html=1;entryX=0.643;entryY=0.246;entryPerimeter=0;dashed=1;labelBackgroundColor=none;startFill=0;endArrow=open;endFill=0;endSize=10;fontFamily=Verdana;fontSize=10;" parent="1" source="6e0c8c40b5770093-47" target="6e0c8c40b5770093-56" edge="1">
          <mxGeometry relative="1" as="geometry" />
        </mxCell>
        <mxCell id="6e0c8c40b5770093-70" style="edgeStyle=none;rounded=0;html=1;dashed=1;labelBackgroundColor=none;startFill=0;endArrow=open;endFill=0;endSize=10;fontFamily=Verdana;fontSize=10;exitX=1.003;exitY=0.363;exitPerimeter=0;" parent="1" source="6e0c8c40b5770093-47" target="6e0c8c40b5770093-25" edge="1">
          <mxGeometry relative="1" as="geometry" />
        </mxCell>
        <mxCell id="6e0c8c40b5770093-47" value="" style="shape=folder;fontStyle=1;spacingTop=10;tabWidth=123;tabHeight=24;tabPosition=left;html=1;rounded=0;shadow=0;comic=0;labelBackgroundColor=none;strokeWidth=1;fontFamily=Verdana;fontSize=10;align=center;" parent="1" vertex="1">
          <mxGeometry x="553.5" y="774.5" width="332" height="130" as="geometry" />
        </mxCell>
        <mxCell id="6e0c8c40b5770093-48" value="" style="triangle;whiteSpace=wrap;html=1;rounded=0;shadow=0;comic=0;labelBackgroundColor=none;strokeWidth=1;fontFamily=Verdana;fontSize=10;align=center;rotation=-90;" parent="1" vertex="1">
          <mxGeometry x="649.5" y="776.5" width="15" height="20" as="geometry" />
        </mxCell>
        <mxCell id="6e0c8c40b5770093-49" value="package" style="shape=folder;fontStyle=1;spacingTop=10;tabWidth=50;tabHeight=17;tabPosition=left;html=1;rounded=0;shadow=0;comic=0;labelBackgroundColor=none;strokeWidth=1;fontFamily=Verdana;fontSize=10;align=center;" parent="1" vertex="1">
          <mxGeometry x="571.5" y="814.5" width="112" height="70" as="geometry" />
        </mxCell>
        <mxCell id="6e0c8c40b5770093-50" value="package" style="shape=folder;fontStyle=1;spacingTop=10;tabWidth=50;tabHeight=17;tabPosition=left;html=1;rounded=0;shadow=0;comic=0;labelBackgroundColor=none;strokeWidth=1;fontFamily=Verdana;fontSize=10;align=center;" parent="1" vertex="1">
          <mxGeometry x="740.5" y="814.5" width="112" height="70" as="geometry" />
        </mxCell>
        <mxCell id="6e0c8c40b5770093-51" value="" style="triangle;whiteSpace=wrap;html=1;rounded=0;shadow=0;comic=0;labelBackgroundColor=none;strokeColor=#000000;strokeWidth=1;fillColor=#ffffff;fontFamily=Verdana;fontSize=10;fontColor=#000000;align=center;rotation=-90;" parent="1" vertex="1">
          <mxGeometry x="538.5" y="476.5" width="15" height="20" as="geometry" />
        </mxCell>
        <mxCell id="6e0c8c40b5770093-52" value="" style="group" parent="1" vertex="1" connectable="0">
          <mxGeometry x="576.5" y="954.5694795496323" width="130" height="70" as="geometry" />
        </mxCell>
        <mxCell id="6e0c8c40b5770093-53" value="package" style="shape=folder;fontStyle=1;spacingTop=10;tabWidth=50;tabHeight=17;tabPosition=left;html=1;rounded=0;shadow=0;comic=0;labelBackgroundColor=none;strokeWidth=1;fontFamily=Verdana;fontSize=10;align=center;" parent="6e0c8c40b5770093-52" vertex="1">
          <mxGeometry width="130" height="70" as="geometry" />
        </mxCell>
        <mxCell id="6e0c8c40b5770093-54" value="" style="triangle;whiteSpace=wrap;html=1;rounded=0;shadow=0;comic=0;labelBackgroundColor=none;strokeWidth=1;fontFamily=Verdana;fontSize=10;align=center;rotation=-90;" parent="6e0c8c40b5770093-52" vertex="1">
          <mxGeometry x="100" y="25" width="15" height="20" as="geometry" />
        </mxCell>
        <mxCell id="6e0c8c40b5770093-55" value="" style="group" parent="1" vertex="1" connectable="0">
          <mxGeometry x="755.5" y="960" width="194.5" height="70" as="geometry" />
        </mxCell>
        <mxCell id="6e0c8c40b5770093-56" value="_PD_30000005" style="shape=folder;fontStyle=1;spacingTop=10;tabWidth=115;tabHeight=30;tabPosition=left;html=1;rounded=0;shadow=0;comic=0;labelBackgroundColor=none;strokeWidth=1;fontFamily=Verdana;fontSize=10;align=center;" parent="6e0c8c40b5770093-55" vertex="1">
          <mxGeometry width="194.5" height="70" as="geometry" />
        </mxCell>
        <mxCell id="6e0c8c40b5770093-58" style="rounded=0;html=1;dashed=1;labelBackgroundColor=none;startFill=0;endArrow=open;endFill=0;endSize=10;fontFamily=Verdana;fontSize=10;entryX=0.592;entryY=0.2;entryPerimeter=0;edgeStyle=elbowEdgeStyle;" parent="1" source="6e0c8c40b5770093-4" target="6e0c8c40b5770093-11" edge="1">
          <mxGeometry relative="1" as="geometry" />
        </mxCell>
        <mxCell id="6e0c8c40b5770093-59" style="rounded=0;html=1;dashed=1;labelBackgroundColor=none;startFill=0;endArrow=open;endFill=0;endSize=10;fontFamily=Verdana;fontSize=10;entryX=0.592;entryY=0.2;entryPerimeter=0;edgeStyle=elbowEdgeStyle;" parent="1" edge="1">
          <mxGeometry relative="1" as="geometry">
            <mxPoint x="843.3275862068965" y="244.5" as="sourcePoint" />
            <mxPoint x="843.3275862068965" y="320.84482758620686" as="targetPoint" />
          </mxGeometry>
        </mxCell>
        <mxCell id="6e0c8c40b5770093-60" style="rounded=0;html=1;entryX=0.452;entryY=0.1;entryPerimeter=0;dashed=1;labelBackgroundColor=none;startFill=0;endArrow=open;endFill=0;endSize=10;fontFamily=Verdana;fontSize=10;" parent="1" source="6e0c8c40b5770093-11" target="6e0c8c40b5770093-33" edge="1">
          <mxGeometry relative="1" as="geometry" />
        </mxCell>
        <mxCell id="6e0c8c40b5770093-61" style="edgeStyle=none;rounded=0;html=1;entryX=0.69;entryY=0.102;entryPerimeter=0;dashed=1;labelBackgroundColor=none;startFill=0;endArrow=open;endFill=0;endSize=10;fontFamily=Verdana;fontSize=10;" parent="1" source="6e0c8c40b5770093-20" target="6e0c8c40b5770093-33" edge="1">
          <mxGeometry relative="1" as="geometry" />
        </mxCell>
        <mxCell id="6e0c8c40b5770093-62" style="edgeStyle=none;rounded=0;html=1;dashed=1;labelBackgroundColor=none;startFill=0;endArrow=open;endFill=0;endSize=10;fontFamily=Verdana;fontSize=10;exitX=1.002;exitY=0.668;exitPerimeter=0;" parent="1" source="6e0c8c40b5770093-20" target="6e0c8c40b5770093-25" edge="1">
          <mxGeometry relative="1" as="geometry" />
        </mxCell>
        <mxCell id="6e0c8c40b5770093-63" style="edgeStyle=orthogonalEdgeStyle;rounded=0;html=1;dashed=1;labelBackgroundColor=none;startFill=0;endArrow=open;endFill=0;endSize=10;fontFamily=Verdana;fontSize=10;" parent="1" source="6e0c8c40b5770093-11" target="6e0c8c40b5770093-25" edge="1">
          <mxGeometry relative="1" as="geometry">
            <Array as="points">
              <mxPoint x="665.5" y="359.5" />
              <mxPoint x="665.5" y="464.5" />
            </Array>
          </mxGeometry>
        </mxCell>
        <mxCell id="6e0c8c40b5770093-73" value="&amp;lt;&amp;lt;model&amp;gt;&amp;gt;" style="text;html=1;align=left;verticalAlign=top;spacingTop=-4;fontSize=10;fontFamily=Verdana" parent="1" vertex="1">
          <mxGeometry x="327.5" y="114.5" width="130" height="20" as="geometry" />
        </mxCell>
        <mxCell id="4KCCKe6j0dbEFb28bn8k-1" value="" style="shape=image;verticalLabelPosition=bottom;labelBackgroundColor=default;verticalAlign=top;aspect=fixed;imageAspect=0;image=data:image/png,iVBORw0KGgoAAAANSUhEUgAABDQAAAC9CAYAAABMHi15AAAgAElEQVR4nOy9f4wk1X3o+2kCQchPMZBZ9lkk8nrdvfYOsxF2HBDVd/2DsHrpAaRNvJokT1kNUkg1D+zX44cWZXVHwkgTreUVutXPgdBjIjHCkpPRQpCA7khL1g6bbmuJY9BlmMVb7c3m3aAEmAuL9SyeQ0y9P05V16nqqu5TPd3TM7Pfj9Ta2a7T53zP95yqU+d7vud7cp7neQiCIAiCIAiCIAiCIGwhLhu3AIIgCIIgCIIgCIIgCFkRg4YgCIIgCIIgCIIgCFuOsRk0qkUoVsdVuhBH2kMQBEEQBEEQBEHYSlw+bgG2Go0yTC+C5UCzMm5phFSKOWgBjguVfPf1ahnmFsP/WzYs1SAhqZCds1X4+2V4s+V/YcGtS7A/Qb+ny3DKb4qdNhyqwURCntsh3dM5eDXht7e6ybrpx1oDzp6Dt5dVvvc1k2Ubtnym6UzlG3a5giAIgiAIwqVBdoNGG6rHYW4FvObgBVeasKH2gDaUZ2FRm2A5U7A8mc0wUaqBOwmzI5CvOAvNdeh0PflteHuMmqan3E6SaFdhDnC99RkwAutWEnUPSgANyE0nJLDAWUo2thhwuginWv5EzoWHpgEbHqx1p0kqemYJ9ubT0+y04QtHVJqsrDVgeQ721eGekvrubBWWC0Bs4nm6CKeAGTeU55Fi98R3u6QDutppUNaq8Mgc7LRQxjsrPe1I5OuTLot8wywXzO6PahGWp8SOKQiCIAiCsJXJtOWkXYViAVYn12fMGAflWZhcAs9TH3cellPmosIlgDW5/llMqRZ2KMdS3iDB/0udROr/lqUMKMF1rwmrBai2Byp6Ysr/Nw8UYCewczKaZn8T7nPU3zMePOh/ZqaUceF0W6WZsQEL7tPSfIEwTWbZSiqP3yuF3+29Xcn42vNawoaadO6bDw0n++eBFrzY2IbphsxERen5nibc0MtYsNnlG0XZBvdHpQnzk1DIQXmEehAEQRAEQRBGh5lBow3lIhSWYcmFWtJSvp8mlws/5SoUY4vkZe16V8yGhn+tqHYE5HJQLEO7oXYQ5NJePLXrjaQJWAMWiS6G50uw5GjiV8Oyu77LJc87dbmC+vbVS1H9X69HtQi5ArRaUf3lit15VcvRMotliItmnB992qNPPSI6aYTXGrG0A08WGmUt09j/48qulnsIF9TBb9DCHLTmospJ7FdBnglKHgY1F+ZmVd6NMrlcrudH1+MOfXKWh+syFLv3SIJxIZ6mBrdacOp4tiqlcfZ5eBO4bk/43do5vyzN8EEJ9gFvndt+6cbFZpdvFJjeH6UKeC6woB4bieOHIAiCIAiCsGnpa9BolNXkmHm1qJxPWdUuF2ByXluA9uAgytNYpxZ4SDgJmZTUy6XVUltBPA9mVqCwAPMueHVYnB5gblkCu6XmwPpv85Vwu0nef7G1YteDxfculmF2QRl4PE/9dnK52yhQDnQX6GWpO6tK0y/biuqvywsmD7cfUbspgjTzQKE4YH70aY+Ahtq+cqQZzWvPcc1Y4Tsi2MC01hfcOqxMDzhRCDwgbGChCAtA3Vf4QW1mXC3C6sGYkmdhLtb7ggZ1HRUERVdOiTGQVx3z+TaUanie1/NT02Sc2ANYsEPLTTcWDIO9M8AinB00gwY8lFOf5TnAjnptvL2a/tM3V7dfug6LoV4eKsLTI/YOGJl8w67HEMvNdH/kodZUXnsLBQmOLAiCIAiCsJXoadCoFmF6RYUDqPWY8DXKsOJAJZamVBlwa4oVGhr2TIE1AyXfddgC3Hj6UjjJL6UYXGouTK7CrL6Iv44X8BYqPkXHwJNXhoSpue7F/oins//y3EufvYgblEpH+m9NXy/VBRVzIa7a0hFYWehOb9fDvpAvwYwF614InpmHZi1s4FKgwAbMTcUU6jeGvc4yO1tKRrjJfnLA1ivAzqkw/sEOC3YUDH7XhtOz8KYFXzAMmrI26Kq1v/XkQVd5e7A4+sn7ZmeHpeKT3Ocq3dw3A69Obx69mMo37HoMvdwB7o+8P45MLavxQZw1BEEQBEEQNj89DRqVJtSnYNpg28DUkFeHh04eKrXQ8OEuwerC4Ktx1kzy95MWnNPehGt1WJ6ObTkZdAUwYVtPbrbbC2bYrLZgT9KEPg9TrW4DzsFReDvsScm0fU7Fw0hiUGPBRhIoN+OWE/JwjxbgcH+z9ykPy8GKdgFem1LBIPeOrFIx8kq+fcCrC7Dmf70jpdkgGu9gu6QDpYd7an5sB1SciVutqF6GzSjkG3Y9hl5uxvsDwi2EKzO+N+IA9RAEQRAEQRA2lr5bTko1sz3GK5t4L3aj3G2QyeehNg+tHu7YvWgtJ3/fNfkvRbeIuEvA8mBxJYLtK5HYkkuj99CIG2k6tGHFGtNujYD8nvRGXB21qWe9+AoskHnLSVb0oKD3pBw7GuftVcAa7KSTJHbEOuqEbwQ9Gwuw+SrR7QHbJd242OzyjZ0gRpS/tVGO4xYEQRAEQdg6mAUFDfYYz6g9xnEPg9IRYC62haMNjapa8Rp5oLV+QUFRsTfiW0waz4B9MJawFcaTbPsvuvFQDKCMCMWiSqMSqy06K044wW9X/XiSmkx5YltQYmU3tPzKRfV7nclCuHLY9o+iTZ22G+RnQmUelmej9aAN1VmYms+e33ApgbMSsxD5jbHeU2xGGhTUV2DSXp5NwNmqOgVo37yZ8UPndBEeK0dXzNe0kzY6+ZXUCSv66vrpBcCCz8cCWG6HdL30snMmu56NGbJ8w67HuMoFNUbpMaLStiwKgiAIgiAImxQvK67nObbnYXd/b1uREJSeZXue62pJnOj1yMf2PK8e/c5xPa9ua9ddz7O0ax3q4fd11+uibnue7XTLZ9cTqueEeWF5nlP3PMf/neWE8lhOLC2qjK687IRyne5yu8pOyq8evW5ZnlfX6541v37tEUkcq4fV3QbxtvM8z7N1eVPqnYqdIlxSRo7dLVzQcEFD1+30Cif0hUjnS+hXZvnVU9JYyZ11iLxoed7XiX0sz3u7Xxo87y8sz1sdULy36+r38fxeTNKx53kv2lo6Oyrfdkr3dt3znorr2/K8p1L00o+3neS2+zqe9xcJt8iw5DNOZyjfsMs1xbH8MWqwnwuCIAiCIAibgJzned64jSqCIAiCIAiCIAiCIAhZMNtyIgiCIAiCIAiCIAiCsIkQg4YgCIIgCIIgCIIgCFsOMWgIgiAIgiAIgiAIgrDluHzcAgiCsLk5W1Ynnpiw04F75NjLgRA9C4IgCIIgCEI2JCioIAiCIAiCIAiCIAhbDtlyIgiCIAiCIAiCIAjClkMMGoIgCIIgCIIgCIIgbDm2jUGjWoRiddxSbF2Grb9t0x5tKOag2h63IIIgbEXKQ3h+bJvn6ZiQ8S0FGd8EQRCEbcC2MWhsFapFyOW27stQu6pegHLBpwiNDXwZGlR/jfLW1vulTZtGtUyxmCOX8z/FcspLeJtqudhJVyxXSe6e2yFdg3JO00nnUxx4gtJuNKhWy5SLRXLFNNmGLZ95PczkG365g9KuwqINlfxw8tvsyPi2PmR8EwRBEIQB8MaN63mO7XlY4xYkA3XPg+SPXe//c9fxPMsZsYyu51nD1qnreRaeV3eHnG9WMZL0F/SjoC0sz3PqBr/bbIyi3fqVl9SXLc9z4u1s2O/ttDQx3TuW51m25/XrTm7d9sDy7E7Hc726Y3lgxWR0PcfCw3L8Phr+P1rGdklX92zwMHnoGOA6lgd4lmV5FknljUo+s3Tm8g233GRhzMYtm4T7aLMj49tYkfFtyOVt8vFNEARBWD9jNWi4jhps4gPBVmKQl4gt/cK3CQxPXfpz1UuG/vLg1lXf0tPJC186Np6nvx8H+kubjPXTpZPwwli3u39Td8wnSnEBLPAsvZC67QHRvLbzd0M2aISkGShGJV/WevSRb8QGDdNxy3U8DztT1psOGd82Hhnfhs+WG98EQRCETIxny0kbykUoLMOSC7VKepqc5v5ZrkKxGE1W1q53uVs2QrfRauCSWYZ2I3QrLTcSytaur9fdNO7CWk5xCQ1cRjt1ibu6NsJrjZhu4nWoFiFXgFYrmmcupjvoo79OJfw6JOQZL9soP5P6BkUb6K9xHFYcaNYg8OzOl6DpAnPd+4P19k/Ks12N6S3Q+zrqYdKfs7RbTwbt9xr5EszbsOpmLLsHpRpMxdqjVAHPBRayuHe3aTy/TAuY2hP68rfPrQA2B0t6oQexgZVz7W2XblxsdvlGhsm4pXF8DpwjvfOS8S1WFxnfuvOS8S0m1HYf3wRBEISsbLhBo1FWgxrz4DUhn7K3uFyAyfmoU99BoBVLV/OvuU5CJiU1mFgtWJ5U6WZWoLAA8y54dVicpsc+8fXRrsLsKizF6jA7151uAXDdMN3SPCzMai8ZJfW9DUxrunHrsDIdHSgrTb/eVswpstktY0/9BeSh6SXnWStFk5rkZ1TfDPp7ZhHmkyYXefXSsvy89t0yzC6oCYnn12lyOfpymq/E9OaCtY56gFl/ztJuPRlCv29UYXqR6KR1CByMtwdAHmpNcOdhodBjotAo+zEOCkzPtcCuR/qfuxp/OoS0tDfX7ZKuw+J0GP+hWKQ84rfmkck37HoMsVzTcSugX+wMGd9kfJPxTcY3QRAEYThsqEGjWoTpFagnvCjoNMpqRaISS1OqDDD4AVjQ9F8I9kyBNQOlPFBQA3nXK3jJf8Hx/HQDcnwO5rVVFVB1mLdT0mkJ8yVozsN0uTtfux7qJl+CGQvODS7mhmNaXyP9tWHFgrTuVJiM/r8FNPUJSV69aE3NJa9QDaMeQ+/PpmTs99PaqtnCKrheul4HJd4eOnn/vptaVqtZXS+kpRqe5+G5dRwLWJzuuxK33Zm0wLIdXNfD8zzcmSkWpwubRi+m8g27HsMs13Tc0unlnSHjm4xvkXTab2V8y8B2G98EQRCEgdlQg0alCfUpNbD0e1Gd2rMxMo2MHi8ikUGvDStEB9vOZxp1McawVxU2FNP6muovD1Ot9Jc1dzX6f2smOd2kBZm85TO221boz/Vg9bEOrIA7gjcudzVdF4HL8MqMvwqelkm+RKVZxwYWF8KTLgqTSeuMCmuy0Pl7u6SDEpWmR7NW6Uw68pUjOFZUL8Nm+PINux7DLTfLuAVmJ5tshedBT2R8S0bGt03LlhnfBEEQhMxs+JaTUs1sT+HKVlqSSaLHi0jkJSQPU4SDbddnlCsc48C0vqb6Q7l5LiS5cbZhYRFmbg+/ai0ni7Xagj1Z3jAytttW6s+dVbjZ4a8inVuByJwXwtgEvstws09sAkWB+Lw6v2cKWOQZvdM0nmGRaKyN7ZJuXGx2+UaB6bgFfWJn+Gyl50EiMr4lI+PbpmdrjG+CIAhCFsYTFDTYUzij9hTGg1aVjqCCXUU2nKp9j8UhBDLry5CCph1xYKEcHTQbVfUSolOrw0IR2rGyGlXIJbjkGtPS5A+Cdq0nvyFhWl9T/QXBuIpa2nYDigXAia6UWqhAZW1NL9WicpnNujBoWo/M/dm03bR+Gg8Mt25KalV6doj7fRtVWJ6JtkejGo1N0O0C36ZazFEsNyL9oN04zlwL7PlKuNJVqlG39dX1NtWFRbAcjkQCWG6HdL31Ys3cProVwKHKN+x6jLDcPuMWmHlnyPgWppXxTca3S3t8EwRBEIbCOI9Y8TwvPF89fryd63m2FV0XsGzPc7Wjslwn+Txw8POLnSvuuOporc517YzyyBFc9fD7xDPpDc8rD2TUz0G3HU1urc5uvbu+kWMBE+riedEz0eNHhiWVHb/eU38Z62ucn0l9M+qv04+CtJbnOZpsQbtbTn+9dAuh0iedvGZaD5P+3KvOidTT+69xv69Hy4rr1NK/M+wHtkEaz1NH3+lHEabh1m3PsvAg/FiW7TmJN6frObYVprPTjvbc+uncuuPZlhXRC5bl2Yl66Y/rxPLS9d11vuHw5DNOZyjfsMtNVlbyuGXH78Uev5fxLb1MGd9kfLtUxjdBEARh/eQ8z/NGYyoRhG1CG4qzsCT7XgVBSKFdhcIqeLVxSyIIGZDxTRAEQdjiXD5uAQRhs9N+HlpT8rInCEI6+Ypy8xCErYSMb4IgCMJWZzwxNARhE9MoR6O6z66CK6uugiAIwhZHxjdBEARhuyFbTgRBEARBEARBEARB2HKIh4YgCMI2pFHOkcuZfYpDP0ZAEARBEARBEEaPeGgIgiAIgiAIgiAIgrDlEA8NQRC2No2y72lQZDM7GrSrxQ31iGhUq1SrVTaxSgakQXk9emw0aDQaNHqmKXfaqtwzoSAIgiAIgjBOxKAhCMKWoOFPRLso1fDqNtBiblafwPee+OoGhnIj2xaNzqdobjDI75lSf1gOS5UMZwpok+ssn+m5Oebm5ijkyr0n7+si1PH6PoMYo2zms+gxoATPTE8zbVKm5XCklL0IQRAEQRAEYWPYNgaNahGK1XFLsXUZtv62TXu0oZhjU6/8XzI8M8309HTyhHh6UaVpzVHofD/NIjaOY9Gam+1qw3yl6RtCYHG6DDUPz+v9cR0LAMtx1XfNysYdd2g5uH3kS/7UGN2cvERNK8tXZwe7bqrPJQaxTQwq8xHHAlrMFUZp7OlPeQjPlm3zrB0TMvalIGOfIAiCsEXYNgaNrUK1qI5K26ovPO2qesnpHPtWhMYGvvAMqr/gqLqtqndBx6buutrk3sWfF2sTaBfHtrHtSW6vNPG8ZjhhblcpBqvzpZqf/qC/FWFcdTKlTbVYpFhMnojrXiY9t2O0G5SLWtpymqeJ8sBQ2y7U3935NiiXy5RzOQK7UsDidFBGb8NBa9VNEpJqMcmbYxpVzCLTaR4fffaJ5G+fwQIs5wglDLbntKsUh7ytqV2FRZsNNOSMFxn71oeMfYIgCIKQgjduXM9zbM/DGrcgGah7HiR/7Hr/n7uO51nOiGV0Pc8atk5dz7PwvLo75HyzipGkv6AfBW1heZ5TN/jdZmMU7bZJcSzPs2zPM+1OdRsP8CzH8WzU3yYfy4mX4HqOFb3mOo7nOI7nOFZKPpbnuJ7n+te780zAdTwLPLA9x3U9r26rvCzHc/2/jfLRf6e+6NQ/8rwJ0sW/T5PLrvv5uUq3nfy701qq8uHfUQF9eWzPtlPaIUWgQJ/J18N2il4Oy4v+Ku17/Vq/j/9bTZedj2V7tuN4TvzB0i220Zhm43kmzb+pkLFvrMjYtz3IOvYJgiAIvRmrh0a7CsUCrE6C1xynJBkpha9xrgOWE/6/tt33W1tQ2mwrim0oF2AZcIN2mYflaVmV2sxUmjA/CYUcGQMv3h7Z5pDsoVEn2P3QmivEPBbyVJrqemuuQLnRxt2zhz17bud2P0VnS4m/h2KQLRGN43O0AFhk1Y39uFTDdSwlW+aok2qbR91WHhCqXg3KvnuEXfd6PoeUXDb1WsnfLpOndMTBas1xPC6Ku0oLmNoTyq//nYXUGCgbQinWZ7xI+0LQd2Lbc/RtPs0atUqFSiVduaZj2pb1zpCxb3MhY9+WZPCxTxAEQUhiPAaNNpSLUFiGJRdqlfQ0Oc3Fs1yFYjGarKxd7xrAG6FraDVwuyxDuxG6jiYOJtr19bqUxt1UyykvGYFbaKcucXfWRnitEdNNvA7VIuQK0GpF88zFdAd99NephF+HhDzjZRvlZ1LfoGgD/TWOw4oDzRqdeAb5EjRdYK57D7De/kl5tqsxvQV6X0c9TPpzlnbrS4b+QlvdH7pOimVC9/sB7iNTvZQq4LnAgrkLd2CgCD8F5pTlQNviEGxLAOw6br3O/B5X21IQTnBrHGd6eoFzhSHOVhplf/uFheMmGxg6MTwWpwfaylCqeaFRxK+v5bhmE0trkoL+f99wsXIuSQiLyUKYJp1FFlcsLMvBsRMuJ8RAKcz1zrGT87TJlhOtzdPwA6wG/bV9bsWv4jqDf5qMaRrH58A50jsvGftidZGxrzsvGfsSBNu+Y58gCIKQwka7hNRtM/dUm263ybqT7sab6lLpu4oG1xxL5VF3vY77bJfbX139BgMX016unK7T7VZYd6LyRNJpCd26cr+Mq8n25Qp049ZTXGEzum8auaRmyNNIL33qa6o/m249ddLbYVrXUWVYlla267t/9qp74G48YD0CGY3685Ddbk37ixv7fz3uMp/hPsqil4gM9e62jcqkbQtwXa1fJG1NCLYYWH3c+l3PsW3PttV2i64tJcHWAz9jsy0nKWV3bR3xInlG5e//u3jdU3/fj87WGP330Xy7PhFZots57LreVuGWk+A7cxmHueUkOU1EJtfxrKDNYjrv1CehDUzHtE6tHM/DTr8uY5+MfTL2rZ/tNPYJgiAIvdlQg0ZnIOiTTh+ITen5UqcNTpG8UwbroZTrpb9sxOuX+lJS737xtRNenB0rYS/2Jn6pM62vkf76yKTL4faYFPR6MUzrJ6b1yNSfR/BSZ9Rf+smR4T7K0p8TZfafE1ER9cmtaTwEA4NGLC7EMAwaqRP3HoaJ0ACQIG/q71KMDlmsGnW7Y8xI+p2qr5r8q7+T9Km1RzwPTX+bw6Chx0+pe45leZblp9cMO2mfpHvJZEzT6RU7Q8a+IKGMfTL2rY/tM/YJgiAI/djQLSeVJtSnYDrN3VVjas/GyDQy2rBikXhcYmEylg6lky5Xz2nUxRgHt/JeZdP6muovD1OtZJdYAHc1+n9rJjndpAWJ3vbrrYfPOPtz3/6S4BKcm6XP9oL0vLL2585PfTfelRkVfyC6AcRltQVq+0M8HkIQQ0Nt7/Ai15oJcQoaVKtVqtUG1dk5WljM3B5N1NnWEj+2o0/lq0V10ke/OBZxSkccVBiQFokHfnTRoJwrMNfS6uz6eSxOm8XlaJQpTi/Swo8Zogvsn+qhtoSorR3q7xZzhR4nqCzGjtXNpL90hrblhDx7ptRfrblp5lotmDmSHjcjFqMlTpYxDcxiZ8jYJ2OfjH3DYXuMfYIgCEI/NjyGRqlmtm9w5dyGijV8erxsRF408jAF1NNix2+lYKkmmNbXVH/AQRsWkvYst2FhEWZuD79qLSeLtdqCTLEOM7bbZu7P5QIwHwaV8zzwliBlDtebQfpzEH9gAeZdaCbG1Dmn3getGW7Pq+NDu2NoqMl2/AjP7sl3idtZZm5uWv3OmiFmzwiDggYfA+tEoxwaGDIHSMxXaAYxPfr9tlH2J+82dd1gk6/QDIJcLi70jMnRbpTJTS/SwsKuuzTjM2xfHpWdTT32d1d6wmsRvdWTgmkk1ad3DJEw2Kse8DVeXp16vU69XvOP4E2e6pVqKr3rWIDFzO2o42ELcwNNZEzHNOgTO8NnMz8rjJCxLxkZ+zYdW2LsEwRBEPoynqCgeag1wZ2BhUJ3YKrSEVRAK31Eb0PDD5I18uBJQwqMdsSBBT3AFKoOC7FlxFodForQjpXVqEKuPHj5tDT5g5WI9eQ3JEzra6q/Ug2m5qLBvNoNddoATnQ11EIF6WpreqkWVWC1rHNQ03pk7s+m7ab106wBJeNMFsJVoXYbyoOuUpGtPzeqKhgc8+qFL+0Ugfbzy7QAe75CngKTqR4Z3ZPe+YTJdycgJ8DUnjCgXqWJlzph742aKCd5hAyP58u+14Ndp+tEDiUEdcfBcbqNNAHtapHC9CJYNnW3SS316IY251aIBhCNBxMdKXkqTUMjDwAlSqUSpRJw7hznzp0j8bbwA4OGHidhUNl1iNpzTAMz7wwZ+8K0MvbJ2CdjnyAIgmDEBm1tSSc4Qz2+v9D19xNqNu6uYEtOoh1cfWyvE7Ap+DhuGMAN2+vsfwyudegXGK2eXm58z6brhHmB59mOJrdWZ7feXV/bSS8zkNfWvovvVU0qO369p/4y1tc4P5P6ZtRfpx8Faa1oILKg3S2nv166hUjfb25aD5P+3KvOidRT+q9/zbS/uPVoeZbleXX9HhjgPjLRi2N1B75Lq6ht257d6WxBHIRe8TH6x1PoxK3oF9ShXvfq9boWR6JfUNAQPX0n+GdicM9e5fcKCmomt/Zlz/gj0Xr5erYcz4383VVQ/5gmWgyNuO7CoKi9Yl8klZeW3o3Gxgh+ZUfl6f5Z9hgaKcUnjmm9YmfEfy9jX3qZMvbJ2HfpjH2CIAiCCYxbAEHY9PhBweTlYxwkTV6zBAU1MGj0NRR0l5cl7qZ+iknW30bkHPjT76SXVMmVEUMdAaLkSD6GJd3AEDHG9G63QYKF9v1kayhl0OgRfHWgU2Q8r+/JJoKwKZGxTxAEQdgC5DzP8wZy7RCES4R2FQqr4NXGLYkgCIIgbAwy9gmCIAhbgfHE0BCETUyjHI1QPrsKrrzQCYIgCNsYGfsEQRCErYh4aAiCIAiCIAiCIAiCsOUQDw1BEARBEARBEARBELYcYtAQBEEQBEEQBEEQBGHLIQYNQRAEQRAEQRAEQRC2HGLQEARBEARBEARBEARhy7FtDBrVIhSr45ZCEARBEARha1HOQbU9bikEQRAEITvbxqAhCIJwyVP0z1tMm5lUY+cyFssgk5htwdM5eLoR/v3YJjLwn63CY0V4KOd/inA6pd+dLofpHivDWkqe2yHd0zlNJ9onTTejol2FRRsq+Y0tVxAEQRCGwfgNGm3/Hbu4vmwqTWhWhiNSP9rV6JxgS88N2lAuavUoqvYYubdLG4rrbPPM5SW0Wa4oq1LDJtP90a//mbZbWjot/SVB0wPHSr7WrsIc4Hrg+Z9mDWQSs2k5XdQmuA1/wltOSNiGt4C3zoV/p+XV9SnC2XbvNI+VwzRZWWvA8hxcNw8PeuozMwOnCt0T99NFOLUCM65Kd8MKPFLsNgZsl3QA2KFegs/+fHd+Rv1gQI7PgXMk+l21uEXfaQRBEIRLjrEaNNpVKBZgdRK85jglyUa+Al4dsMN5gefB0kGY3WITp/IsTC6FdXDnYXlx3FKNgLya69lA3YvVtyBGjWGS5f7o2/+ytJsVXq/bYNf9/7uQMsW/9LAmxfAwVuIAACAASURBVICxhZiY8v/NAwXYCeycTEjowpvAdXvCr/S/AfY34T5H/T2jTZ5nptS9dLqt0szYgAX3aWm+QJgmcx1KKo/fK4Xf7b1d1eW157WEDTjVgn3zsNfvo/vngRa82NiG6TJg3A8GIM07o9KE+Uko5KA8oNyCIAiCsBGMx6Dhr8oWlmHJhVqSZ0V85TYH5Wr3qn5ZXwGOexU0oqu+nVXiRriamzhQa9cbGV7g8iWYoXvluGsFWrte1a6VYy9Fnd9oKzGNuMd4MUHGRjRPvb6RFZcGLBJ9kcmXYMmJZqfruCO7viKurxQl1LdcjNatWoRcAVqt/qvoPes7aPtq5Eswb8Oqm6FcHYP6pqXT+0HHq6GY8F18B4Fp+yaVm3IfGdd3HXTdH4b9Ly2vpHYzwaQ/B/ooVn3Da0x/cYaqPz2zRuz/8cIjW0hS3I2CjlSYg9ZcVNDE5185VERSHbLIF+98aUu+cSUXy+r/XfdRQjo9v+CBqg8GnYdsMZo2Sz3aDdWo/VzZ+tW3USaXy/X86M+OHfqkNQ/XJahOZ0eBjnHDlL1HEowL8TQ1uNWCU8czZNyDs893G2DWzvllaYYPSrAP3/Nkm6XLQtZ+kIUk74yAUkUZhFlQXX7YY4IgCIIgDIMNN2g0ymoyy7zyysinrBaWCzA5H13hPQi0YulqwYpt0iSo5K/OtmB5UqWbWYHCAsy7ahV5cXqELpUNKM7CkaZWjybsOR5OeCtN5SHuuFCLvQB5LlgWeDX1VbsKC4Draqve87AwG3vvL4Wr1IsLqr4z9XCVXE9nt9S7u66DfCW6fafmr3A7rjb5zEOzjloVr4Vpy0HbBvVd6lZLpanVzYvqRqdvfYfQvo0qTC/CQU33xno2rK9JP8hXuj0J8hWVtmsHgWn7YnYfZanvUDHsf0kktZspJv25VPOfKcswuwpLMf3p89ih669UU5nYwEJRZV73Mz+ozQCrRVg9GOt8szAXe0oGHcl1wHKinWEA/WWSj/noFpf5SZiN+8q3lXV7XldgwgyrUYZZlMtOZ8vMETheDBVdaXYPBhX/xuu6jwzrQcN/qCzFdL0Szc+kvqUanuf1/OjjwMQewIIdWjFxz4vTRXhoWv19qhD+/eq02k6SFuMhK3tngEU4O2gGjXALy/IcYEe9Nt5eTf/pm6vbL12Hxej2n6cTHhom/WAQjGJn5KHWVF5xCwUJvi4IgiBsPi7fyMKqRbWFu97nPbpRhhUnNsHHXy0YJE6GFU6Q9kwpr+tSvnMJl5gXdkm9M2cl2KLu+ZlVF2BmqdvDu3RETXYCJdw+A8d9IQIdeU1fsJnwd8fnYN6L5pcvQRO1mKobFgKsmejkMB/Tac2F6nGYzfmTXAuceajo6fJqNXx6Vs0NAqoLYM93lxnxhPVfhgbBuL4Z23c6F/5t2Wr+oV/Pqud+9TXtB4PQq31N76NB+tUgxO8PMOx/Pj3bLQ/NtH4Wv5ahP7emuutfqsAzOWhUVNONVH8zMWWUgr8bMDcFXuxGrTRhNce6KNXMhc4kH0p5lJUlr9MxE9xs8vnuh/DCCizF5crDkRmYrfp5D0hqPYDytLJ+lSItrHTdKTJLfTNQgJ1TMOH/d4elvtPZ34S9VXhkTm0l2eH/favbHYuhizacnoU3LZgxVN9am8G2LflbT4IyTy3C0wejRo1LjR2Wat9DR9R2krUqPDIN1GN6MegHg3B8TnVtE/L+e1G5CLllcJuye00QBEHYHGyoh0alCfUpNTHptxVgagirDyNnMepdPLuqBvmA1RbsSRrx8zDVChcV83tg8RmgDcuAg/Icbzyj6aGt1gOnc9EycznITdO1WBjQV495qNTCRU93CVYXuldhSjV/NT0Q2n9/j7+j1+qwPB3bgjHIis6A9TUhiMXg1lU+bmyLUJZyTepr2g8GoV/79m3/Eeq53/0BGPc/6NNuGTHtz1bKPvVJC861Ga3+APakzPba53oLt1H0ki/eAYLP9CKs6L73JX9gKET37MT3WbWmkmdQ+T3Q6rEsvp56dK73mbqZ1jfjlhPycI9mw9nfjBkp2vBYThkwAJa1v08V0k86WQ48Agrw2hTc14S9vWs4PPKqHvuAVxdCD5IdPWJC6PEitks6UHq4p+bHxgAmKmprj64XoH8/GICsJ5sEWxtXZnzv2vUVLwiCIAhDY8O3nJRqZnsyVwbca7qhxIIexg8M6Ex64rRhxdIW5ktgr0D7eWBGeWwsPw/nVjSX+jxMEQ2M2Gu7hgmNcrdhKZ+H2nzy/OCIo7Y4tFGr2Yn7bktRj3B3CVgeIKjYCOrbVUQJmvNqpb7TTFnLNaivcT8YAX3vo1Hquc/9kbX/ddIktdsAmPTnNDk6RqoN6KeJ9JrEr8Y35o2B/O10dYBIZ4i5AwTbP4Iorkt+1NdO/yiBtZISf6OHcWdYJN7AGqb1zbjlpC95uMfzA3miPDT0v+9J8brQg4LeUwtX/nvx9ipghYEu18uOmN1twje+no3FknqV6PaK7ZJu3PSKnREhiHnmb+XcqNPkBEEQBMGU8QQFDfZkzqg9mfEV7dIRYA6q+gtBW+2bL+Y2IDDVgEFB41TmYXkW2jEPgOosTMVc2yeB2WWYud1/N15W3hr6u22trrZ6t2MyNapEA3NmYHE6pmeUZ4h9sDttvqJWtY+X1Wp2fGWn7cuhy5cntiVDp6XpNwheqdVjFPXtwl8cntX6oGm5pvXN0g9ohQvTbV8n8ZAIxlUzvI8y61m7P9Z7OkyW/hchod2y0q8/g5pDd8V1rKqtPMG9uSH9tIsSOCsxi1Bb7Vlb7ylF/YKCGpGHOn5UVf17X8Z4lOBIIBX/KIc4836DR+6jtnpwzsdmWa3lMF2wtDyoneeIA3Oz0cGgrZ033vZlNq3vCFhbIRpjIRZvYb2crarTh/bNmxk/dE4X1bGvusfBmnYSSCe/kjLG6N4JpxcACz4fiy+1HdL10svOmex6zoKpd0ajGo15VhK3DEEQBGEz4o0b1/Mc2/Owu7+3regyl2V7nutqSZy05TA/v3r0O8f1vLqtXXc9z9KudaiH39ddr4ukci0nvX6RelixsvQ8Lc8LLjlWcp5uvVsvdixdp47xj9WdznYS8qun1EWre1odLLu/fJH0fdL1rG+W9q1Hy4r0tyCdbVjuIPXN0A8sPU1d9QW9j5m2b2K5CfeRaX071FPuG60OJveHUf9zs7WbnaCX1HvTM+jPjtLNuvppVpIqkVYRR+8MfqcKOkygyNQOg+cl3ev6TZSgl0zy1WM3edCpI3WwlLK60vW7QYLOnCCjrhfLVg/yeKfNUg+37nlW7Aa2ne6yTeo7Al60PO/rlue9Hfu7Kw2xTyxdYho87y8sz1tN0rMBb9fV7+P5vZiilhdtLZ3dXY/tku7tuuc9Fde35XlPjb67eHbKM0/HsdJvL0EQBEHYTOQ8z/PGbVQRtg7tqoqF0BxSoEhBGCe9+nO76h+qIS7WwibndBFOTcGDNThbVt59D8ozWkigXYXCKkML9iwIgiAI40YMGkImyjmYdM0DiQnCZqZXfxaDhiAIgiAIgiBsbsYTQ0PYUnS21OfU9vy5wsi3hAvCyDDpz40yFOagNReGkxAEQRAEQRAEYXMhHhqCIAiCIAiCIAiCIGw5Lh+3AIIgCIIgbA3OltWJJybsdNKPjhUEQRAEQRgG4qEhCIIgCIIgCIIgCMKWQ2JoCIIgCIIgCIIgCIKw5RCDhiAIgiAIgiAIgiAIW45tY9CoFqFYHbcUQoC0hzAKht2vpJ8KgiAI251yDqrtcUshCIIwGraNQWOrEhwhKZMqIQvlXHj0qPQdISvV4jbpO0X/Jkh7U69qZ/TmclAsg7zUbwuezsHTjfDvxzZRX15rwOkqPF2Eh4qw1iPt6TI8lFOfx8rpaceRbpz1yMJaw5fRzzdJ1nHp2VS+UdKuwqINlfwGFioIgrCBjN+g0fbfOYvry6bShOZGRlNvQ7movSsXVT2yThBKNXCd0chXXKdO15PfhrdHH9rVsK3KjeDLcD6Uy0GuPFYRM1HzwPN69J1GdB4X/2zVieyw+9VG9tNGuXebdPrlBlBpjui5s9E0PXCs5GvtKswBrn+zeB40ayAv9ZuW0/6k73QbaPiTv6TnchveAt46F/6dllfXpwhn273TPFYO02RlrQqPTMNry/BWq399T63AjAsPenDDCjySNBkfQ7px1iMLgZxvTcF9nsr3wSZMjFC+LPUwlc+o3w/I8TlwjkS/qxbFvisIwvZhrAaNdhWKBVidBK85TkmyU56FyaXwPdmdNz/KTth48hXw6urvxQV/EM+r+VDdBssBrzZOCYdMSfVLG6hr87meRhBhpJRqfh+0o+3h+X1QGAHWpBgwthATU/6/eaAAO4GdkwkJXXgTuG5P+JX+N8D+JtznP+tmgomkBzNTsFxQk8f9TZixAUubbHrwBcI0metQUXnc04QbUmxtADTgVAv2zcNev4/unwda8GJj/OnGVo8MrFXhkTn/eOBa1EgwMvky1MNIPjL0+wFI886oNGF+EgobbEwXBEEYBeMxaPjeDYVlWHKhlrRCGveAyEG52u0l0NP1vhH1nuh4HDfClfnEB7l2vZH0QtOARaIDRL4ES9pEseMRUEz4LsVDWpcrqG9fvRTV//V6VIuQK0CrFVsFjntY+N4xeplJFnvj/MiwFSLJw0UvWPMwaMTSrmvwtcEBZvt5KPSTLyZjuRFtv6CfZep/hu0xVDLqOe5lUCwm3CP99KJXuarV19dxOaF8036lp+vl/dA3v4x6Ma2HKUZ6zpAuIl/as8U0vwztm7myjdj/44JGtpAk3ZSED9rCHLTmohVKfN4HeaYIn0W++KCVppB4gxT9Gz8uX1I6Pb+kvUPBd7liNG2WerQbqvEjuk5wQexX30aZXC7X86PfHzv0SVwerktQnc6OAh3jhil7j6gJ42vP90hTg1stOHU8Q8YZWTvnl1XSvizBPnzPkzGnG1c9svDiHGDBoR5eduPUn4l8kL3fZyHJOyOgVAHPBRbULZ74visIgrAF2HCDRqOsJsfMK6+MfMrqWbkAk/PRVcyDQNzzsafrfUk9rK0WLE+qdDMrUFiAeVetli5OD/ACXgK7pd4B9d/mK6H7et4fKKzYdS/NQ3oZZheUgcfz1G8nlxPeHwPdBXpZ6s6q0vTLtmIrwXEvmDzcfkR5KQRp5oFCccD8MNgKAcpgNAtHmtG89hzXJn+ah8G01hfcOqxMr2/grSwBc8lzG2P5NBnrtvL6KCzATF19t3SQ7P3PsD0GpezPY/R+mkXP7SosAK4byrc0DwuzMV3204uW3+wqLOl9eVYZCx0XatoLo1G/8tE9UlxH9dsjpWiavvll1ItpPXTaVTrbnEq1MJ2pnrOki8jnP0tn57rlGWb7GlOqhcpeKCoh6r4QB7Vl92oRVg/GHn6zMBcbFYIHrev4rldaxVPaYmjyMR/d4jI/CbNx3/G2subP64pOmHE0yjBL9IHQPALHi2GDJO0dqvgPrvg4Y1oPGv5Daimm65Vofib1LdXwPK/nR78/JvYAFuzQiol7XpwuwkPT6u9ThfDvV6eHG5tg7wywCGeHlF+ct1fTr725Ov50poyr3GCr0c4pOKvFs3g69s40Nv0Zygdm/X4QjGJn5KHWVF7GC4Wtux1VEIRLm8s3srBqUW1prvd5r2yUYcXpngiUKuANst/dCidwe6aUF3Ip37mES8wruaTeIXtRc6F6HGZzvpHFAmceKoO8MKPyiBgI8uq9dDUHjUpUXxFPRH8wGpS4Qal0BKzZwfMzoboAM0vdnuClI2ryFO8cdj3Ua74EMxac605mTh7mbZguJ28zySofgDUTjcWQ19Nk6H+jaI/pXPh3r/lmPz0fn4N5L6qXfAmaqIl5ki576aUrv7wyNi0XDCuWQE27bxtlNWdbaq5v10FmvfSrxyLkgu1pCVtNTPW8nnSlCrCq9JO1XJ2e/X4QZmIP0VLwdwPmpsDTC9AekuuhVDPfb5ZJPnxFl5UltDOgud355vPdg87CCizF5crDkRnlYlZaR/CX1HoA5WlliStFeoLSdafILPXNQEFNAAPX/B2W+k5nfxP2+q78Mx7s8P++1YX9/W70NpyehTctmDFU31ob2ba0iXlzEbDVliEafrwK4J5NEsPLSD6Dfj8Ix+fUrWxC3n/vLRchtwzuOsdNQRCEjWRDPTQqTahPqQlWPzfsqSFYp0dKHiq1cPHMXYLVhcGt29ZM8veTFpzTVoNrdViejm05GdSinrCtJzfb7QUzbFZbsCdppMzDVKvbc+LgeidJCZRqYC8m98Os8sGQ+uuI2iPwWOgXpqGnnttqfXY6aUvHNF2LtwGpemnDipVgG8rDVB85TQiMGcOIAdlXL1nrYffwDjHVc5Z0SfIBBd0yOuz2HZQ9ae4s55QlMInJXhv8h0wv+VhM3u80vQgrui96yR8IC9G9PfE9d62p5M6b3wOtQZa0DerRud7nrjGtb8YtJ+RVrIGA/c2YkaINj+WUAQNgWfv7VCH9pJNlf3X8oQK8NgX3NWFv7xqOnB09YiTo8RPGlc6UcZXbwYJDfnyKiZKKifLmXOhZM3b99ZEP6N/vByDrySbB1sGVGd97en3FC4IgbCgbvuWkVDPbs7cy4J7KjaBR7p4I5/NQmx/8PbO1nPx91+S6FPVAdpeA5cH26QfbV3SPYW+p21N52MSNNB16TL5GQa2uXObjXW1c8o26PWoDetwDnQl6PMBor+1HffNLMg61U+fOxujGjJGzjnrkKwmOAaZ6zpIuxQjn6s+qYbfvsOk1iV8dtQnWgPztJEZ77WwViS0XB9s/gv2FS/PKpafTUCWwVlLib/Qw7gyLxAeghml9M2456Use7vH8QJ4oDw3977RVeT0oaK/gjDpvrwJWGPhx2Ez4xsCzsYCTrxLdbjCudOOqhzF5P1jpVO/2HJv+DOUbFb1iZ0QIYtr5W2E30+l0giAIpownKGiwZ29G7dmLexiUjgBzUI0FTGz48dFGHrioX1BQVOyDamyW0HgG7LhPfytceGv7A0d8yzeoSWuxqNKoxGqLzooTTkKDPfdtTaY8sS0osbIbWn7lIl1Hk04WQkt8u61Ob0mdHhjkZ0JlHpZno/WgDdVZmJrPnl8Hrd2SYgV2UVIBQudip9OMTD4DMrXHoLRV7L6s1Opq6307pttGdbB+cMSBBT2GoK/j9dS3Wuw2ZrSro90XPOx6mOrZNF2XfH6ahVi/H3b7DpcSOCsJUXSLKljJeugXFNSIPNRRHS2Shy9jPGpzJACTf7RBnPkptbUk8hxqw+wyzMdmHa3lMF2w1DpoBzziwNxsLFCMdr56cESUaX1HwNoK0ZgDsfgD6+VsVZ1atm9+hJNRf7X+1YUw7sfpBcCCz5c2Qbpx1SMD++eBRTitHcV+1t/i0fHAGaP+jOQbAabeGY1qNKZdSdwyBEHYqnjjxvU8x/Y87O7vbSu67GPZnue6WhInbXnIz68e/c5xPa9ua9ddz7O0ax3q4fd11+uibnue7XTLZ9cTqueEeWF5nlP3PMf/neWE8lhOLC2qjK687IRyne5yu8pOyq8evW5ZnlfX6541v37tEUkcq4fV3QbxtvM8z7N1eeP1rqe0Z4Jsnbby+0BXXv3k87S+FP9Y6XXo1f9M28NIz/UeaXqk66dnt96///XVS6xdIveHq8p2stznWvunpYvUYQD99dWLQT2S9JL0zDDVc6Z0CfduRw92tvyytK8RdlJmSTel5w8WMUUHD9RAmakC0v1Qi6S3PS/heZ9JvnpM0cFDP1IHSym1K11C4fGGs1Jk1PVi2Wrgij8Ms9TDrasHkC6f7XSXbVLfEfCi5Xlftzzv7djfXWmIfWLpEtPgeX9hed5qkp4NeNtJzvPreN5fJKj6RVu7bnfXY1zpxl0PU952PO8v6J/nuPRsKt8wiY89SThW+uNEEARhq5HzPM8bt1FFEAQhoJyDSdd87+9mZbvUQxA2G6eLcGoKHqypEySWUX8LwqVOuwqFVYzjHAuCIGwHxKAhCMKmoV1VJ1pu9Qjr26UegiAIgiAIgrCZGU8MDUEQBFDxPLQDEgrLUE84MnfTs13qIQiCIAiCIAhbCPHQEARBEARBEARBEARhy3H5uAUQBEEQBEHYjJwtqxNPTNjppB8dK/RG9CwIgiAMSu7f/108NARhFDz2v8I9/z5uKQRBEARBEARBELYnG+qhsfbqRpYmCONnHH1+Yl+29Fdc8aPRCCIIgiAIwqbhgw8+myn9sN5hsr6XCIIgZGHDDBprr8Lb/32jShOEzcG4+rzpy8MVV/yIyy8Xg4YgCIIgXAqYGjWG/d4uRg1BEEbFtjnl5MS34Cunxy2FECDtkYzoRRAEQRCErczD98OJtXFLIQiCoJCgoGPmzAn40x/ADQfhz/ePWxpByMaVB/6EK1+CXxz7M35273Vd1y979EmuOvoivxR8cdPneb92mA92b6iYwtDZTeOjt8KJxykdUH+vHXuKw/e+O27BAHjn5Oc4880bef0l/4ubLmA98E/cfGBQ+a7hTOW3aT1xNQATd73C7dUfcu0o5Dv/OZ78zI2sAdz0CrMn+5cz/PoGqLZ9HZgYQvu2Hz3ED45ejT4P+vSxpyh18o3qmZsucGftBfIpz4v++SmUfnbx+ktBvlG9muvPVD6z/vLOyd247m7e+ZureZ0LBm29jdujBs9n7PdZ5TOnn54Nnwfnd9Mo39rpV5F0A9znAf3686h54zQ8dwt8b2KDChQEQejD+A0aa3Di+/DIv8H3vjp4Noe+CoeGJ1V/1uDh78JzF/z/74L7Pgbf35nNMHHzIfjOTjg2Avm+8l3483XodD35bXh79GMNvnIMXot/vwvu+0M4tEED86bTyzr5+clv88Gjx7gq6eL5F7jqKPzHy98WA8aW4BrOHPgyrZcuYr18gpt/chv/7dAuuOsUX6uejyY9f616EXevgU9eS/dCXZBXQjGdSUd6mom7XuGWyg8Hm5icvI2lQ7uYOHaK2ZPnuRZ459FDLB36Mu+ceJzSgawZ+nLyCne+/MOO3EsHGGwS0Ve+H3L4vR/SrtzNs6vjqG/IO49+ltcH/3ksr0M8exSslx/ncGK7Bv3hAne+fIL87mtoP/rbPPuZ27jzvRfIZ84vTLd09Gom7gr1E8FYf6bymfWXjlw3XYSXroabTHS4vdsjU7/PKF8WeuvZ8HkQGCw69byGdkVLtzvjfd6RrU9/zvIcH5C/egbuOxr97sS34Psfg6OH4PqhlCIIgmDOWLecvHFaTTL/Zef6jBnj4OHvwsf/EL73sPp85zb4/g/GLZWQygT8+cNwB/CNh2PtdkxcJ0fGTR8TY8aW4V1+dRLgIr+6G/jkRSaAiU8lrAL/RK3CThTCa/rf8C43n3yc2WMXgQvc+d7jfO29x/nae09x5+Qunv3MIc6cV2nuvAu1wqiluYUb/TTZa9F+bhdwgVvuDV/2r733R3waeP25ATrjyd+k9RJ8+oHAwPIuNz9wAV66kTMnxy/f0OvbYTdnjl4NN6l+sF7e+fHVdPpWEuc/ybmXYOLYP3X0nL/3R3yaXfzg0Wuy54c2+Tv2FIerSZO/DPozlc+wv1x77wm+9t7jHD75d+wxMGZcKu1hTEb5zOmjZ8P2bVdvZI0L3Nmp57vkK68wMeBzA0z1l+E5PgCBd0Z8EejQV+HwTvij++Hhs0MpShAEwZjxeGgE3g3Ad47C9UmjRtwDArjjIPzzK1EvgYfvV/lAwraNs/Clx+l4TzzyA7jhFjh6Axx7XK3W33E33L83VvZZ+Ip//RtH4ea4fGdVmbq73fV74ejB0NPijdPwR8+osgNjTec7lHU7PiC8cTaUK6jv/XFvjwTPkDsAbgvrceJb8Ih//Uv3a7/dFTMc+d4x3/9BWOYNt3Rb2I3zo0979KlHxFMiaDtUG/yDljaxzQbk+r1w+Bb4h7dBf3sJtgIF3LALDv9hd1944zQce8bXn1+HfzmmdPB1Ld2m1svJJ/mVQy8C8MGJb/NznuSqQ2qbyC/u+n3er97Gh37S6BaS3Xxw7I/5eTy/8y/wkc/8dWebya989K87lz448W3ej68Yn3ySjxx6kV/i87z/csJ2lAzyXVE5xlVPhLPgX9z0ef4jaYvL+Re4qvzXXNFxMf88H/AiPBCTLyHdz2uH+fnuQB/H+F+Onoebfp+fnrwt+h27+fnLRztps9SD869yVfk5rngpqMtuPjj2a1z2Nx/jZ345RvU9+SQf9ctM464T36bq1/naT10ML+x+hwlI8L4IuMi1nyQ0bvQsJcB/qX/iRs797TXcnOgy/y756lNYq1+mVd3NzRlXFfN3XIAndvGDR3dz7b3Birtacf30HWFe75y8jee/eTVrgds2JLqsv+NeDVygoPeLA+f5NLtYc68Bf1uCaX6m8gHw0i6eP7BLy/Minz72I27WJt+Z8ju/m0b5s5qr+gWsBy5y7tAu9rx8gpv1ej/6WV7nItYDFzh36MZkZRvkF0zCFLt49qN3a/oxc5Vf+5tP8s69Pwy9J4zyCyamr3B7j60ZmfRnIp9hf8nKpdIegFG/N5UPGGq/z9S+N12Myus/K4mnM6qvuf6yPcezkeSdEXDzfvjeXvUO86UX4BsJ70yCIAijYMMNGsFE8Y671YMvjYePwcdjac6cDieFAfc/DPfjTyzjmeyF7x1VXiDfv1GtyJ/4FvzRv/mGirfV5PAPHs7oIrcX7ngcHj4Nf7A//O31++HPtb+/t1dt00D/br+SoYtXlPxHAwPPGpz4LnyF6OT34WOArhd/Aqxz6KtwyGSLyATc8kU4pO2BOHMC/uhbUUOFcX70aY+As/CVF+DoV1VaveyHb/An5XtVez18P/zpMbjPr3Ng9DmTZGgagDOnVX/8hqaDN07Dk0SNbW+chWPfBb4KN2vpjr0JR4P+47fZl2Ag8wAAIABJREFUc/gDvqaAjdTLHVmVcOAwP33vMFdU/oSrvnmMK/g1fn7iz/jZgeu47GR4Zttljx7jqh/fwfvvHfYn3m9xxaN/yVVHz0crtfs2fvbebcqwUSYyAR+IDPL9Mnfw/768jw8Dg8PJF7iq/CScPMwHnZRvcdVn/hFO/Bk/PeDH/Tj/FleVYxP/k0/ykW9+jPdPfpv3td9eUTnGVXcc5f0D8OG9R/np76h6Bnx471F+ei9ceSDW0ob1gFe56jPP8eGJPw7lC3TNx7LV98Bh3nvvsLGqry1c7HoJj3peRLeJtD5zNy3/yuuH7ub1oe3lfpfC716kdXQ37er5bO7jB17gzrsO8ezRW1k6emv4/V2nItsvrj3wAocjxrVrOFP5cpfLerDynMTaj68B3s2Un6l8iqvVKu/LJ8jvVnvnnz90K0s/htlghdY0v5PK9Tzqqq7ac42L7NGLPf85nvdXgm/+5Cc5l1R5w/yuvfcEX7sX5Vr/xIX07QC7f8Kem26kdfQ3af9OsCVJxTHgpat5B7g2S37+tqiJSXArh/x4Bxf59LG/i8Z0MNWfoXym/SUTl1J7AEb93lC+Yfd70/bNVx/na7G8nzy0C4g/Uw3rm0F//Z/jg2EUO2MC7v8q/MFZOHYMnpT4cIIgbAAbuuXkxLfgT/9Nufz3Wkk+cwL++SAciqW5ef+AW1N2hQ/UX/8Y3HCjPxneATcA/xpPv1dtT/jew+mT5vuPwsffhGP3K6+FL30LTqzDze41lLGg460yoQwJn3gGzsTSflz/jz94DOqxEPeOufmLSiej5MQL8MU/7DYi3fxF+OcXutPfcXfYF67fC1/cBf9jHeX/adBm98OTb8J3Hg6NFKBWIA4fiurm+r3w57fBn55ISBd8MQGH/nBw/Y1bLwC/+N07+OnJw/zcn0h/eGCfb7x4lSuP/hr/Ud0XehFwHR/ce5T/uGudhR44zM/e+zY/fa9/sFAj+bQ8PjxwGz97AK6q6AaDN9U1PePd1ynDhTaBufKb/8p/1m6LpuM6Pqj8Fpd9M6FBMpBeD7ii8n9z2bE/7lzrlHvv0Y4XSLb6ZuCTF5mYfKfjIn3tTb4XRofurSTq74tYLz/O1/oZM87v5kz5RtZuusAtRgENr+Z/Zt12cv5z/OCJq7VtLE9h3QQ8cSuNnq7e71L41MXBysySXyb5LmJpHh7XHvghh09cgCduDd3WjfK7hjPf3KVWdyOu6spwFKddvZG1nivB2fIz411uPvkUd951Nc9+5m7+20e/zLnJV1Rd1sHaEzdyjh8x+97jzJ64yOtHv8yT+pYE4/YYjXwmXFLtARj1eyP5ht3vB+TkbWEA0ETDpUl9FUb66/scH4y/egbu+6JZ2uv99+hPvKLej/+f9RcvCIKQyoZ6aBz6Kvz6CTWh7Oce/4nN7qY2oTwbAu+GN9bgr74LX1kbzBp9Q4oH6cd3wf9YCw0r99+ttsM8EiTYBXfcmLA1xYSEbT3sGiCfjPzLBfgvSe07AZ+4oAw4uoHhvwxpe0nAN3wDxhtn4dgL8K9rmvFiDf4ZeO7+lB/v0tLtinpSAKoOA8o1br0AfFhIOSj+/JtcdtPHNC+HkF98auOCZPSUjxe56qMvJgcoveljQPDbfbx/4hU+cui/cmXn+m4++N0/5v3OSS2vctlLv8Z/JlVt904+fOkVroBEfayrHp3r3SfGRDCtb8YtJ+z+IYerwZV3ufnkiWhiPTI/V0fcy1ufuZtziScCRN3QJ+46Fa46joB3/nYXa1zEqv2w80J/c+0Vzn3mRl5/bjelA7514fxuzlQ/y7knro65Y0cnOhH37RiRfemG+RnLB3DTBQrxPujviQ/c283yu4Z3XoKJYz/p0nuwwh7W43P84An49IlexqkM+WXiXfLVE3yt0wd30/go3a77WdAnswde4M677ubZo79J+17lSZCpPQzkM+4vplxi7aHS9O/3ZvINu98P0L4nb+PJQ7uUd0XayTTG9cVMf/2e4wOQ9WSTwGuUg8ozece6JRAEQUhnw7ec3HwIvvfF/nvs/nkTB2k8cwL+4YaoQeb6Cbj/NvhS1zEaZrz2CpBglOia5PpW74DAkPLwRHYvjWD7ynf2al4Ba9FtMqMgbqTpkGYkGBHX71VbhL70XfjOV30d+AaJwzGvjS5SjAyBQeTjyb/qyWbRSyI9JvG/9OPz8KlxCKWx+zf4kH/jP947bGZkOHCYn3W2YrzFZeff5Mryf+WqQuClsY8Pb3qOy1QojCg9jDvD4jL3LTjQw6hhWt+MW076okfm993L6edqTq9r6bzzY7Vq3vWib0QsOKG/j5zOhGM3jc/cyus3hW7eEMQDiOZ0beEisAv3JOQDw8/J3SrGQiF7fmby+eiu8zGiLuRm+SVveVDu9+88oE70UBN8WDt0d/Skh6Nf5kmiEzKT/NZDu6K2EHz6gQG2MflbEtY6K9W9MGwPA/nM+os5l2R7GPd7M/mG2e+ztO87/gk6cJFPn/g7SmnxU0zqm6k/D59esTMiaDHyEmPQCYIgjIDxnHLib5P4zo3w5DEVi0Ln5i8Cz8S2cKypeAdfuR/OjNrYcVaV86UeZT33ePcWkzOvwR3x/QYXwhM03liDh7UAmzo3AF/5lkoDqHgM31Jbb/SYDV86oaVBTcJTJ88XNPn9sr8UM9R/fEdozHjDH4hSbTIG+Zlw6Db4/nej9QjiT3xiPeEWtHYzPrVkL3zjY3BM64P33w1PfismH6r/6fX9g4Pw5Al4I1aHAW1ao9PLUNjHz4/9K79ceVV7aLzFFY8e45efWGfWJ5/kIx/9E37lo09yxcCu/tfx/gn45QMvKCNETMZfqURjbfxKRU93HR+yM7a1BH7+wK9xeTmW3/m3uLL8j3z4QKxBXvpHrvTTXXb+Va468CdcmXRkqQEfVH4fjv4lV558K1LuFY8+yUc+eszXkXl9h881/M9Voqu061mxTci//eghnn3i4kATp2t/5wITqCCP7/jfBYH+9vyOPzkI9qP/bnBCwjUqqOfRq7szPPACd94Fr3/zc35+oRv7zcGEJkN+RvJ12MWzlTCdCm6o3OKDss3yO8/Nxy7CE7fypJZO6fq3I0fnBqdvdD4vv6JOSYisLpvnNxjX0K4c4tknVLmDTcT90yee+CxnTvou+ec/h/sEcFcYlyVbexjIZ9JfMnCptYeif783k2/Y/R7j9lVH/+5SgYFfPpFuzDCubxb9DZe0k03inDkNXzoG3Ka2h4sxQxCEjSL37//ueRtR0Nqr8PZ/T7qgTtp4BPjeoej38e0QN9wCR7+oBWrUTg3p4hb43g3hiRCgrMu//n3/9IpblKfIV46pCWjk1JE+p5ycOQH/sBN4JXYKS8I2mq5TMG4DXlBGjRsOwuE3lTw3HISjaGnpPuUkCEL5iX/rPv0lactJpOyk/GKnqtywCw7fBk8GdY95KfTNr1979GrfHqd5QNg+/U61Cdqt6xSZtbCtu+QJrmnfvXEW/uqF/npOO+Xk40dhxzH4wsMbr5cb/w/42wdTyotxxRU/4qr7f5OrkowS2skdAcmnnPylOtXjrv+Tn1b3RU7ziDPIKSdXVP7EXL6TL3DlN7VTSdjNB8fu4P17wy0eKrjpb/HhajydvuXEp88pJ4l6uenz/PyB/w2++V+58iX4xbE/42f3XpepHkmnnPzirt/i/cptkZgZJvUdPn5gUF5h9uRPcDt/68aHaPDQDpGgoSlpgImbLnBL7HSQTJz/HI3yjbzeabcLWLUXoqcZnLyN531XcICJu17hlk/t4tnACHHXKb7WOWHlGs5UftsPxKfS3l6NGlsy5ddLPn1bz00XsCav1raxXGTirh/F4gGY1VfJ+DnOfHNXeNoDStd7Hvgnbu6acHW3T3xyZ5Kf8uYhmYhOfC8XLZ9bav9EfndULuP8AhkfvY3nj+rtcmow/RnKpzDoL5HTQaIkb03Y5u2Rtd9naI9h9/v+7bubxkdvjXp6aEwce4rDv/PJ7Pd5L/2llBXnP//zs3zwwWeN0gbv7Q/fr95pehk0TnwLvv+x7lPyAnb8BkyMclgSBOGSZvwGDUHYZgSDf2DQ2GiyvDhcccWPuPzyH41WIGGb4b/wT57ia9V3aVe+zLN0T1wEQRCEzUVWg8Yrj8AfvRlbeBkAMWgIgjBKNjyGhiBsZ944Dc/tgu9MQHvcwgjCSFAnnQTeW13HEwqCIAjbguv3w/fGLYQgCEIfxKAhCOshvpVllwp0ez1i0BAEQRAEQRAEQRglYtAQhPUwET11RhAEQRAEQRAEQdgYNsygIXvnhEuRHb+x8WVmuddM99IKwrj4yf/1WepLZml/9c9W+d/v+f9GK5AgCMIWJcuYP8z3dpkDCIIwSnKetzFBQQVBEARBEARBEARBEIbFZeMWQBAEQRAEQRAEQRAEISti0BAEQRAEQRAEQRAEYcuxbQwa1SIUq+OWQhAEQRAEQRAEQdhOlHNQlSMMNyVyyokgCMJmp5iDFuC4UMl3X6+WYW4x/L9lw1INEpIKW4unc0Adfq+k/n7LgXsq45ZKsdaAs+fg7WV4FbivCRMJ6c5W4e+X4c2W/4UFty7B/pT+ebYKfz8Hb2rf7XPg9yrZyn06p67HudWNlm2aDuB0GU75t9pOGw7Vuss2za+nXtrwWMHXgZVeR521Bry4AK/q+c3D/lKfH/bApL4mnC3D8mLytZ29+vQAehi03J7txuBy9OvPEfrUV28PLJhZgr0DPudN76N4ub36gUm6Yd+/pozreQVDuI9M74N13i+96Km/dZSb9NzSfz+K59ogtKuwaIMn71WbkvEbNNpQPQ5zK+A1B8+m0oSNesdrV6Ew1/39lpxDtKE8C4vag8KZguVJaI5SoW0ozkJzHW2eubyCmhNGsMBZSp4jCoORdH+43ia7Lza6/62Xpqfc0JJoV2GOTahkIY3TRTjV8l/MXXhoGrDhwVosYRveAjgHFPy/U/LqQpvspKXZacMXjgw2IVqrwiNzsNNCPVitlHQNWJ6DfXW4x38BPVuF5QKQMDFZq6r0t7pwT4JcpuV2SNLrgOlOF+EUMOOGen2kmPLy3ic/E73c4/kT8hUD+RvwyLSapAfyrFXVd2/7BrGsZKqvCRbMNGGvJvND03Ddnh6/8fUQyDIQWcrt0W6Z2sOnX3/uokd9g/s4aI+gv8x4Wt0yyGV6H5n2A5N0I7t/+zCu5xUM6T4yfR5kfW4Y0ld/A5bbyddO0UeG55rxuDogx+fUmpJOtQjLU1tw7rcNGeuWk3ZVTTJXJ9dnzNho8hXw6oANnhd+lg7CbMqcY7NSnoXJpbAO7nz6asaWJq/mhDZQ92L1LYgL2TDJV3z9+vdI3YbjjXFLtc2xJmU03UJMTPn/5oEC7AR2TiYkdNWKlz7xik/C9jfhPkf9PePBg/5nZko92063VZoZG7XypaX5AmGazHWoqDzuacINPSYlEyWVTn/x3Hu7qvNrz3enf3vV/11KfzYtd+g01MvyvvnQALR/HmjBiwM837LqpR9nn1H/fqESTgomKrAPePWZ7PkNu757a/BgMzrxDmTeO8KV1nGVG9CvPxvThtdaamIXtMdev33/foDt1sb3kWk/MEw3rvt3XM+rYd9H42IU7dYxZjhwT4rHSpbnmvG4OgCBd0Z88bPShPlJKOSgvIXaczsyHoNGG8pFKCzDkgu1FLe7chFyufBTrkIxZjAoa9e7Ymg0/GtF5ZGdy0GxDO2G8uDOpXVA7Xojw4tevgQzxCbH8XoUo9er2rVybHDo/KasfV2O6qRYTJCxEc1Tr2+xDG0t3SLRGzRfgiUnmp2u447s7TBPXb6k+paL0bpVi5ArQKsVrUsuwRjUs76Dtq9GvgTzNqzGrK5Gejasb1o6vR+0q9066HwX37Nn2r5J5abcR8b1zUDjGbAPQukgLC6kJFqH/pLSmdQjS/8zls9IIZpwjdj/y7GHV7VMamfpyOZ3kMIctOailUl8rgV5xjvJAPLFO1VXx9NkLMbSFRPkS0qn5xc8KPWHfOfhWYymzVKPdkN1koiuy92DSb/6NsrkcrmeH73P7NBfsvJwXYLqdHb4q4Nv9kmns/dI/8nx3hrcasGp4xkyHgJnn+821KxV4aFcaFBfzqn/P5SDh4qwtrEidrF2Tv0bmQSX1Iv1W+eGU0aSXgBowYmipo8cPF2N6mTvQfXv32vfr1WVa/i+g1o9GvBYLK+HinA2dv+a1tc0v8T6LgJ2t3fBWhUe0/J7rKgm83GS0q2nXGMM2iNLfzatbxpvLvfPz0QvSRj3gw24P1Jpw9PFqH5PN5QOBjHWxlnP8yqLXozbzaD/maZbz/2biqF8L84BFv9/e+ez67attf3HwLmE5uQG5ADZx70BGTkv0JmcSfDhhaeeyQU6sCd7ZqDnAJ5lIg2K1nu2p8Z3ik4qzQp8DewbqI8DRLqBNLkHfgNKFkVRFuW/2+nzA4w4Nje51iJFi+RaS/jfPd7gtvMa0P53tQ1vp0Bwb/7OmwAiATCXtxDH3juTw7j4hkY8losJzKRXhlOzqznuAnezsgfEG1RDBhb5SXtgqMSTg8xdyxAKIYDhBujOgVkiT5AfBub78JMQS7f2+5Wixwp48bZYEE1WQOBKN6aFNuGJBHBdQGTuUmkIzAEkieIVMgPmI2194MnvIl8uJLtzYBgVXiRqOX8t7/FVGziTcrjJIpHeZaXwfQdYRQAU+QDZb1D77bFqlslK0U2UbaPSqO8J+jcOgcED8EaxvbWdLfW1GQdONiGqG9+5p0Og74bb9i/srqM2+lqTAvMNcO9JeQOY1+RW9rMsZ6uH7fhrI58V3kJW4gOY96WwUSbsG+VOKewD2zdaoyNgqs1++QBJAsANysoccvLYRj7MZIhL3t7sDhiNtQpTuWs9UzvEcEcQj4ERpAtVXm51D7ztFx03WVUn+Ul2QVWuD0s9EGeTxaNma81f1kZfbwEhxN6XOr9/9QKACzxTmtEXse/6mcssgN+6xfs/Bqdd4L8cAngA3p+ovlri4uZ2OQXgl09B8xPAoS//r3qbfH9MHPhD+Ub957pJraFcfhJr4qPpO9t2G+yyawPSZf17AXwXAX9OgR/GyjjwpO0+ToEfsvp+MNnZk6es3yv2/Sbz5lHHgK2+tvWZ9DYtSt6Ppdz/iLL6EuAfqG7m5eX+HikeR1m7tbbe0+4Oy35r6g/b8WyrLxx5Mv5xWiw23/WzHBNr4NOxdqnBdhy0vj5saeqPGPh3F/izp3ifrQDM220AVzjRfGVrl7b91jgfWJY7+PptoFG+LJzyeU/qrm58lLCc1wC739VDqPPOKOEAi5X0+p53+ZCKa3DRDY2wDww20uV/seeGOx4DmwCYaGW8yYGhKW6xQH/RA9wh4GUuSS6ARC/vFffWXgs3wTyUPR/04VzGMOtVePfARjmxfj0sPATCvnJSnEC6fGS8nQKzRXkTyPGA1QwY6GuJDHcobZbb0vHK8iwS4G4LjNQDSn3ydKQXw3RU/jicA/6s2mbJwyu7yPf1dx3W+rbs34Fy0DrfynWKKl5bOzfpazsODmFf/9peR4eMqybSXwEMC1leD4FpzSmw7XhpKncOPdrI14rhDFgtignGyyuMgWlPa8CRi3f/yDbzhb6wCPa0kU+tw5sAM2iuK5WZVXbOSrvg5hvgUT+icYD7ITA/8q6gVg8A44FMoFOa5DNb73Z02+jbgq68kctvep+5mReGgh5Kkr//JrFY4KfAuxHw0ZWuujZ8Pvepklcs2L5xATwctsBqwzM3i83Ob6yHckNIb9e23KnbBWBtl2+U5I9fecC3kSy7c1tPgf/3gFJYka2dX2aT3KnGgE19xrCPWJ54Pw+UhH+OvBa+hrlcKTQg8zj6Y16/4bcv3KRNvzX2hw22+mbkoWPLrlzY/beX9bGhvrZ2eYrY9Me7OeQpvxay8HKo19aSS85XB/Sb7fg7ZJyeYj6wbffjA/BfyDnruwj4Ywr8pP7st5nXLH5XD2Gfd4aOk60fe8uq8yg5Lxfd0JisgKgnF5RN94G9E+yqnZ2HshfyaAskykJxuwZemBYODtBbF4ePzgvg4RcAKbBEcZod/6LYIZXnhupifPcaoHKomNNoRweYLIoNnOQR2M6ru4veIvPmyIU2rbsALCJgOdBc9A9Zkxyorw15Do0kkvUkWohQm3Zt9LUdB4fQ1L+N/X8mO7/VoiC6UwAPVV1tx0tjuTPpcbLxrPOiZkck/SDzYZi4u2DA8T759Ikvfw0egI3qQ+tlE363HAOkx0+te+YNFucFsD7maG+PHrvvG3Z2bPVtGXICR8YM57xaacnmUul6/EOWXHepvP+tq93wKezcnrtysfPd6gi3+nOhLNjOvcB6tcpis/Mb64l5gWBT7tmeWGw9Ttu23RL77OIaErdmMeK52/rnzC3+m8fihv7VoyxTijVP5RMXVNf2fGypWOtrWZ+OKewjd8//x2uDPG613Mep5irfyZLfKh4LNu3mWPebRX/YYKuvystFcZL+7QL4lCVofIbj7FKH7Thoc33YYtMfn9bA82F1gzf3oDjkaSgljpyvbOzSut9sx59NuQOv3720uT6UzaivFG+M3DvEel4Dmn9XD8DKO0Mtn4WAb7LDRqY2uxwXDznxFnaxRptzx9ydAi0p6Eo7+LxzgQ81eRc2rnJI6QH+pjjVfj0Elr8CHzZKKIQD9FBOaNnkLt9EPK5uLDkOsJiZ1xH3gQxxSCG9Dow7ll7Zczx5BLA84CDzDPpWmshP70fKLmrbdi30tR4HZ6DxOjqHnePs0VZaXZFvOHC3HS9N5c41Xk41nm3Zt4jftgiqPhfOa1QmvtIkqLkD7LxChJz4H7MsvDv7eYC7qcm/sWdz51QYL0wFW31bhpw0kmWMV92Z1fd1j7hU3Z7rkqzpfNrCfAN6ZuoWbE+Vr7LN4fdarqs/cBq35hyjXfYsRPW2S8kJszhydUH5cxf4bQP8T1KMle8MIbu2+trWV6Im7CNv85PBuevTulru66jsKq++jBt5TeEmtrToj33Y6lvH+3GmzyxbEB5qFwsZm8bBpa4PE3UhLe/2hXq15ND5ysYurfvNdvxZlDvo+m3CRr4shAo9u9+ppnntXFh7Z+S5IbOQ97M+JZIYuU5S0DzWaChjjfQTT+8ewFQLfUhlvoN+5wIJVw5MCqozmQHLEZBqHgDhCOhpoRp3AEZLYPg6u4deSm8N9R54EcmQ8FSTKQ5RTszZgodBNcQkT+ao40ykl8bbsfTO0Hcs00wOVT4Hmsu+ylqxb558UdHjHPpWyA6RR8oYtG3XVt824wDr4gA7zWyip06wVs3yOmptZ+X6MOXFqNvs8u4BLIu1q639bMu11qNh/LUezyfBA4KNtmOSyli0Y58+1JQU1AoHiCBduPTss6Eh+28pQU8WB6Yzyy7A0vWRyglxpt0VrNUBlA3EQ/d57gMZR6dO8mmaJWTNfUVb6HsGPm9QjgnW4oOP5X0oXZ3zBdE5eNcHftJiuz8rmf+v0a56omtbLo/lVk9pc3f3f2qPDjy2XZNdllr8+c9ZSFHe9lfZkxhMyfN2HgB53Pqw2MD6HAP/13Qia6Nvm/oUasM+vOwEflBOSpgv3E3l3imX4Oe4SA5piv/fF25iPQ4ymvrDClt9TbqMDWEKB9qlSUabcW9dzhLb/vhnAOBBeq2pZd+HNY+zPqLdg+YrG7sc0G+2429vuQOvXxts5Hs1A/Cg6JxWPais5rUzYeudEYfl3JBtUhWQEyKuTSJE4AsBv/q575aPw1xfiCRRigR1x2ZZfVH5syARIvKV7xMhXOW7HVHxeZSICqZ23aBev5IertaWWqcrRP5V4JrrTKKqXXyt3E5H/eVWy/mBob6oRhdF9zodXL9ZvlL5hnJ79W3Tv1G5rdJ4y8v5lu0eom+LceCqZSI5FtQxZtu/xnYN15GtvjuimutGCOHXyKPL7Ef29mtj5zZ6NI2/tuO5kZJxGiaPwC8bMkiKgZBfoLUDAUKYrmH14jCMvVbyRZrx8sFa0sGVxqqUaxr4+SA1yKjaxfXlBK0PxjZ6JJEQrnZh+kG1bRt9z8DvrhD/coX4pL2vlIH20soZy0CIH10htiY7W/ApMNf5Lwjxo2LqT5FsR2/3d818W7++vn/5h7X7H11vV4j/aO3altvZUpHzR7/aH23a3WuXRIgflb//3Vf+X9O2SLS2XSF+TwztavVsVZtq92I2+rapT4hsPBo+z9lquv4nKI/h3JbboFyubmzZtNvYby37w3Y8W+ubCPEfy2vXxi6219HOdg3jwLbcqa/furKH6nvq+aqN/fb2m+34azlOba/fRvsdMl9l9Z5iXjsHPsy3KyqBW3+7Qi5LRwghrr2pQm6HNJS5QlaL5rKEEEIO510f+K0HfL/ITmQh3xNCCCHkPKQh0N2i9BRH8rThhgZpxbgD3CX2CXIIIYQQQgghhJBzcJ0cGuSm2IXed2QY/7R79tBxQgghhBBCCCFkL/TQIIQQQgghhBBCyM3xt2sLQAghhJDrkj81wYbnQf2jYwkhhBBCLgk9NAghhBBCCCGEEHJzMIcGIYQQQgghhBBCbg5uaBBCCCGEEEIIIeTm+GI2NMI+0A+vLcXtcmr7fTH9kQL9DhCm1xbkafHF9C+5OOMTXE8cf8fB+b4GzvdGvpj+JYQQ8kXyxWxo3AphXz7+9FZvDtJQ3vDlj3Ht9IH4gjd/h9ovf/Tsrdr93IyVPqWNboUUcThGv99Bp5O9+uOGxViMcVa2XylYfFd+9U+2wEtD4MEHJs5p6nvqcL4/Ds7354HzPSGEkC8KcW0SIQJfCLjXFqQFkRCA+eVHzX+eBEK4wZllTIRwT23TRAgXQkTJiettK4bJfvk4yvvCFSKILP7uqXGOfmvT/C3Y6IkRuEK4vhB7L4skEC4gUPtyRZAIIUQiAremjOuXrr0k8gXgCn8XLcyZAAAZz0lEQVT3YSKiwFXqMonh7upzK4Ui4QMCNpNYpWK7edyHqJXtycL5/qpwvj9j87dgoyeG1XxPCCHkolzVQyMNgX4X2N4BYnVNSVriFbe0SQC4QfH/hXdt4c6MC3hP7XQ1BcZdYAkgyftlBiwHPH0i52eyAmZ3QLcDjOP9Zd0ggRAJAheAGyARAkngKiUcTFb5Zz4iISCEgBAJot4DBt3CW8LxFhBihcXugnTgvR7CxRrLX03H6DHeTteA68I1fHsotvP4zXpncL5/WnC+J1ekzXxPCCHkMlxnQyMFxn2guwQeE2Bhep59VqajuEaOQ6DfLxfb6zoZF26yYe6COgbSuHCjNf4gKd8f616ru+yOa264chfZnS66a29cfBdrttF1CPtApwus1+U6O5rtAEvX0yyu2FSn3ratK2ujvnnTFvaL3wKbAFgtgN3SzgNWCYBpNR5a7X9TnWmo2S23+xF62IznNv1mRSrHvaprfwwcM6Rtx4t1u7pd+vL/u3HVYtw3tnvAfGDbv94EEAmA+bnc8h1498GezQoASBH/usQaQO9FdRWahnM8wEUwG55GJJt5XOHtFAju99fF+V7ThfN9tS7O92Y4339B8z0hhJA2XHxDIx7LH3HM5GmeU3P6M+4Cd7Oyg+8bAGut3EI5OavgyR8ddw0s72S54QbozoFZAogIeBgc94O/jzQERlvgUdNhNK2WmwNIkqLc4wyYj5SbquyU0AcwUGyTRMBmUP5BnawyvV3NQdpwerrXfjkOsBLmOvUTSpv6rPRtYb9fHoCZaTHlADMfWP6qfLYERnO5ABOZTnfL8s2aM9HslsB4om2rB2A3ntv0mxUO8Po+67vsNQPQPfSGGfbjxbbdcT4X5GUftQItxn1juy3ngzb9m7e/WMnT4nm3xWnxi55lwRriMWSuiy4G0zXgR1XPgTTEaLqGGzxi0m2o72GAIidHH2PD3brtPK40v9c7g/M953vO95zv/xLzPSGEkNNzyfiWwJWxrk1hx5HfPq6zNhZUi1Et1Z3HCLdryq5dIePFTXXr+tWVE5EQ8Kt16nHbgWuIS28Zm2sVS9uizkPsoutrZb8GmVQ5kqA+xr9WprwNw/e2erQaz+eOqW5hr73VtI29rmnXRzX23YT1uG9qt8V80Oa6NMqczXdVEbM8GW5QG4ctc134RftJlP2Nv2ecRrv8G7qtIl9pL8vnYcqhEbgQrh+IJMnl8Cv12c7jKvtyZ3C+zwtyvud8f2I43z+B+Z4QQsi5uaiHxmQFRD1gUOf6q9B7cRmZzkYKbFzAFGLdvdPKQdqk4vY6gPxS480tx23b6mtrPwforWtOUAAk2/L/3Rpv+zsX+NDm6LZlv11lPBvcnjuj6qn3NdtdRDL2veSCXHPS1TjuT6nvAdfl7k8zl+bNMPNeOKR9AMADBrmnRHeAZS9CsloYrwkAgONhsorgA3iYh4UnQhpi/gD4s0mDLB4mK4HVYrLzuHAm9wjccn1t5vGs+cbcGZzvOd9zvj8Szvc3Pt8TQgg5lIuHnHgLWMUebj5cVKzTs+fGq3TT5QA9AJHQ3E6PdT99qtjqa2s/AG98YG66KUqB+QMwfF18tF6axdquAUPageP1yLjGeM7dexNVrkezO/XV2vXKLsPJI4DlYcnWTqrvIddlnlMic2leNeSUaEZNCiqwWngWN8td3GkKp1lejYdBvjkyxRrAeto1PLrVDtt5HGjInZHB+Z7zPef74+B8f+vzPSGEkEO5TlLQPPZwKGMP9R167x4yuVcpwBaIs4RhZ0/AdKIkcfcBMNeSY8WhvOlSWUTAvA+kWltxCHTGh7ePtSJ/fppxTH0nwlZfW/t5C6A3LScES2P55AUE5ZNhFzLRV6rYJezLJHNtD0Jt9Wg9nm37TRmndevSu25xYpSmwPgSJ3aW7aaZnVT7OQDucDin1LfNdRmH5ZwS538yRIqw30F/HJeujzR+i+m67I3hTFa7TREhBEQSQD5kJcFqd3Hsr88dvq5upjTM44Cddwbn+6Is53vO95zvT9uuLU97vieEELKXqwa8CFE8T16PUUyymERln9z1xS62W4gsRta8ny7ri8qfBYmModx9n8VQ5t/tiIrPI1NAZFTfrh73mQRFXYAQfqDIreicRFV9/aC+zVxeX7WPFuNqalv/fq/9WuprXZ+Nvi3ttxtHeVm3HKub97sbNNulKkR97L2tHjbjeZ/ORqKa8avIptbjukJE6thW2rPpN+tyLdp1/dON+8Z2D5gPbPo3cLO+rOkmVRkfMsdF+aXmxUh2eTBKL0O+jSTyhauVdV1fBMZJy1y3mkcjiQLhu67Wriv82vpKVRvn8X25M/S/53xf3ybne873nO9vbb4nhBByKTpCCHHxXRRCbokU6I+AR8bHEmJNGgLdLSAW15aEkBZwvieEEEJuir9dWwBCnjrpr8C6x5tbQtrgTKSbByG3BOd7Qggh5La4Tg4NQp4w8bic5Xy0BRKeMhNCyBcH53tCCCHktmHICSGEEEIIIYQQQm4OemgQQgghhBBCCCHk5uCGBiGEEEIIIYQQQm4ObmgQQgghhBBCCCHk5uCGBiGEEEIIIYQQQm6OL2ZDI+wD/fDaUpAc9gc5B6ceVxynhBBCvnTGHSBMry0FIYSchy9mQ+NWyR8Zx0UVacNYecwgxw5pS9j/QsZOP7sI6u7UQ+2ZnP0xwJv6L4KfO8DPcfH+pyc0lj/HwLsQ+LkP/LsPfN5T9t0Y+HdHvn4a15e9Rrlr6tGGz3EmY1avSdaTypeW22vSw0a+c5KGwIMPTJwLNkoIIRfk+hsaaXbP2T+umskKWE1OI5IVKTDuK/fKfalH2wWCtwCS4Dzy9Y+06TH1Xbw/GkjDoq/Gcf5hsR7qdIDO+KoitmIhACH2jJ24vI7TX7e6kD31uLrkOI3H+/tkNy4vwGR1pnnn0qwEELjm79IQmAJIsotFCGC1AHhT/2R5ly363qUA4mzxZ5qXU+BPAH9+KN7X1VV59YH36f4yP42LMm35HAI/DID/LoE/1836/rYBhgnwvQD+sQF+MC3Gr1Dumnq0IZfzzx7wnZD1fr8CvjqXfCnwUxf4Q2nvf1Cvh618VuP+QN5OgeC+/FnY5/4uIeTL4aobGmkI9LvA9g4Qq2tK0p7xCLh7LO6TkxmwfLi2VKQOZwKISL5/mGc/4o5cD0U+4AaAWFxTwhPjyXHpA4iU9dzeTRByVrxFNgb9cn+IbAySM+DecQPjhviql/3rAOgCzwE8vzMUTICPAP7+ovhIfQ8Ar1bAd9lcN8wXkgIY9oBlVy4eX62AoQ/AVRab2QI1L9Nah4ms49sV8I+avTYAQAz8tga+ngEvszH6agZgDfweX7/c1fRowecQ+GEKPA+AbxflTYJzyff+rRx7Q6W9l/fAc4MeVvKhxbg/gDrvjMkKmN0B3QtvphNCyDm4zoZG5t3QXQKPCbAwnZDqHhAdYBxWvQT2ut7HZe+JncdxXJzMGydy5fvYdEMTAw8o/0A4HvCoLBR3HgF9w2c1HtKqXLm+jXbpy/+reoR9oNMF1mvtFFj3sMi8Y9Q2TTv21vWhRSiEycNFbVjxMIi1skf9+PpAAGDU5KHQJJ8m4zgu918+zlqNP8v+OCkt7ax7GfT7hmukyS6qyqGib2bjsaF923Glltvn/dBYX0u72Ophi5WdW5QryVc3t9jW16J/Wysba//XBS2FkJguShQTbXcKrKdlhYzzfV5njfBt5NN/tOoMondIP7vwdflM5dT6TLFD+WedfrlsGz3SWHZ+ydYGF8QmfeMxOp3O3pd6fTxTF3EO8HeD6VSedbHb3LDl5b1cMP731z1lFsA3LvDb2xYVt+Tzh6wtT/nQA75G5nly5XLX0qMNv08BuMD/7vGyO4t8LvBM/X82BvVyNvIB7cd9G0zeGTneBBAJgLm8xI33u4QQcgNcfEMjHsvFMWbSK8OpOT0bd4G7WfkU8w0A3fNxr+u9Jydrdw0s72S54QbozoFZIk9LHwYH3IB7gL+W94Dq3zqTwn3dyX4oXO17UechvQRGc7nBI4T827ul4f4xt11ul8dqVZNV1rarnQTrXjAO8PpeeinkZWYAuv0D64NFKAQgN4xGwP2qXNeLt8riT/EwGChjIYmAzeC4H97JI4CpeW1jLZ8iY+RLr4/uHBhG8rPHN2g//iz741DG2TpGHadt7JyGwBxAkhTyPc6A+UizZZNdlPpGW+BRHcsjuVkYJMBCubG0GlcZqkdKEshxe++VyzTW19IutnqopCF2YU7eoihna+c25UryZXPpaFqV55T9a423KIw970shokyIN8qxe9gHtm+0yW8ETLVfhXyiTYLM9UpRvKYvTiYfZuUQl9kdMNJ9x1O5mz9TDW1YccRjYITyhLC6B972iw4xxQ5NsolL/52x1QNxNkk9arbelOuz0ddbQAix96VeH1+9QGWxqHtevOsD/x7I9791i/d/DE6bm+DlEMAD8P5E9el82tZ/93F7/XK2XKvdPNToeQ94r+S9+Fm7Zzq1fC8XWshICvyUjcHSWLWUD7Ab94dglTvDARYr6WU8795uOCoh5K/N3y7ZWNiXIc1Rw31lPAY2QXUh4E0AcUi8u1ss4F70pBey5+y+QgLNK9mT95D7WCRA+BYYdbJNFhcIZsDkkBtmyDpKGwSOvC/ddoB4UrZXyRMx+zE6FH1DybsH3NHh9dkQzoHhY9UT3LuXiyd9cPhRYVfHA4Yu8KFazB4HmPnAYGwOM2krHwC4w3IuBkct02L8naM/Bp3i/b71ZpOd306BmSjbxfGAFeTC3GTLfXap1OfIzaZl11IxAwvluo3Hcs32uDou6qC1XZr0eAA6eXiaIdTE1s7HlPMmALbSPm3bVdk77g9hqE2iXv4+BqY9QKgNKJPkMXgL+3izVvIhM/RY7oTuftCSar2OU/3RmW+AR10uB7gfShcz74jkL7V6ABgP5E6cVxoJ0ta7Jtvo24KuXADmi8VnrvxM5dUKeJm58g8F8Cx7/00CvGq60FPg3Qj46AJDS/N9TsGwpSfMxwcAvgwZQpzlqwDw7SVyI8VyM+MjpAz/xzDkreSzGPeH8HYqL2UbnOy+d9wHOksgOfJ3kxBCLslFPTQmKyDqyQVWkxt27wS702fFASaL4vAseQS288N3t92h+fM7F/ignAYvImA50EJODt1RN4T1dEZVL5hTs10DL0y/lA7QW1c9J94cu0gy4C0A/8E8DtvKB5xovJ6pP3KPhaY0DXvtnMrz2YEppGOAyuFtTq1dUmDjGvaGHKDXIKcN+WbGKXJANtqlrR7+Hu8QWzu3KWeSD0BX3Rk9df8eyos6d5YPcifQxN2+AP8Ts08+PJjjnQYPwEb1RfeyH8JuObZHj7lb98yD13kBrA850rbQY/d9w1Vjq2/LkBM4MtdAzquVtkmRAj915AYGACyV97916590ssxOx//dBf7bA75bAS/3a3h2nu3JkaDmT7hWOVuu1e4OF/jfLD/FV57MifJxWnjWnE0+ZTPjeQB8X7cn2iAfgOZxfwBtn2yShw5uhpn39HHNE0LIRbl4yIm3sIvZ2xwYU3kJ4nF1Iew4wGJ2+H3memn+vLK49soeyMkjgOVhcfp5+IrqMSweq57Kp0bfpNmxZ/F1DhaRdJnXh9q15Dt3fywO9LgHsFug6wlG94UfNdZn2hxKa9fO1qibGWfnCD2cicExwNbObcrVbMIl6lx16v49NfsW8dtzb8Fa4LyGMdvrLlREOy7Owz/y+MLHmXTp2XWUB7ibmvwbezZ3ToVxAlSw1bdlyEkjDvCtyBJ5QnpoqO/rTuXVpKD7kjOqfNoCcIsEkafmq2wz8L2WmPIPlMMNrlXuWnpY42TJSnv7+/Mc8n2OZajTRwBfRzXjzlK+c7Evd0aJPKddFgr7lJ5ORwghtlwnKWgeszeUMXu6h4F3D2AKhFrCxDjLj3b2xEVNSUEhcx+E2ioh/gXwdZ/+dXHwlmY/HHrINyAXrf2+LCMLyxCdTVAsQvOY+1SRyYEWgqK1HSv1jfuoPJr0rlvsxKepfHpL7fLAoj4bJjNgOSrrgRQIR0Bv1r6+HUq/mXIFVvBkgtCp9nSas8lnQav+OJRU5u5ryyKSofepZts4PGwc3AfAXM0hmNn4GH3DfnUzIw3PGxd8aj1s7WxbriJfVmaujftT9+9p8YBgY8ii25fJSo6hKSmoFQ4QQQ60Uh2ZjHrW5lICpuzRBjqzngwtKc1DKTBaAjNt1bFeFuXyo9ZDB+B9AExHWqIY5fnq+SOibPU9A583KOcc0JM0Hsn7UD617OvZGRej2Wn9H/Mi78e7OQAX+Kf3BMpdS48WvJoBeADeKY9if5+FeOw8cE4sX/4YVrjy8a6mMJNW8p0BW++MOCzntPPolkEIuVXEtUmECHwh4Fc/993ysY/rC5EkSpGg7ngoqy8qfxYkQkS+8n0ihKt8tyMqPo8SUSHyhfCDqnx+ZFAvKOqCK0QQCRFkf+cGhTxuoJWFbKNSl29oN6i2W2nbVF9U/t51hYhU3dvW19QfpcKaHm61D/S+E0IIX5VX1zuq6U+DbLu+ysZApa4m+YQylvSXW6/DvvFn2x9Wdo72lNlTrsnOSdQ8/hrtovVL6fpIZNtBm+tc6f+6ciUdDrBfo10s9DDZxTRn2Nq5VTnDtbuzg9+uvjb9a4Vvqsx0UYrsx0IzdD6h5sasFRDVSa1U3hfCMN+3ki/SDJ1P+iUdXGnUSjlD43rHuTUyqnZxffnDpU+GbfRIIjkBqfL5QbVtG33PwO+uEP9yhfikva+UgfbSyhnLQIgfXSG2Jjtb8Ckw1/kvCPGjwdS/+8r3flWPa5W7th62fAqE+BHNdZ5Kvv/U2KTOLrbynRL9t8dE4NZPJ4QQcmt0hBDi2psqhBCSM+4Ad4l97O9T5UvRg5Cnxrs+8FtP5i14PwaW2JPDgJC/EGkIdLewznNMCCFfAtzQIIQ8GdJQPtHy1jOsfyl6EEIIIYQQ8pS5Tg4NQggBZD4P5QEJ3SUQGR6Z++T5UvQghBBCCCHkhqCHBiGEEEIIIYQQQm6Ov11bAEIIIYSQp8j7sXziiQ3Pg/pHx5L90M6EEEIOhR4ahBBCCCGEEEIIuTmYQ4MQQgghhBBCCCE3Bzc0CCGEEEIIIYQQcnOcdUNj3AHC9Lg6wj7QD08jDzke9gchhBBCCCGEkKfA2TY00hB48IHJX/S5hfFYPr6Ri39CCCGEEEIIIeT0tN/QSIFwDHT6+4u9nQLB/YFSKUxWwOqS2axTYNyXmxGdjtQzHLffmPAWQBKcR75+g+3PWd8l+yPsA/0xcKSTDyGEEEIIIYSQL5BWGxppCPS7wPYOEKv95W7VO2M8Au4eASHkK5nZP0qMnJbJCpjdAd0OMI6vLQ0hhBBCCCGEkKeE3YZG5rXQXQKPCbBoOKHf652he0B0gHFY9RIYK99XvCPisvdEp5Od5MdAP6/TtABWvo9Nx/4x8IDyRozjAY+Kp0UaFm1XPqvJGaLKlevbaJe+/L+qR9gHOl1gvS7br+Itk3nRqG2aPB2s60NDfzToUbJJXHwXa2VNfeZNAJEAmMu6jP1GCCGEEEIIIeQvR+OGRjyWi17MpFeG0+B10eSdMe4Cd7PCA0II4A2AtVZukXtImMI2PLnIddfA8k6WG26A7hyYJYCIgIfBAaEKHuCv5YaD+rfOpAizcLIFtqt9LwQQqB/mLIHRXG4ECSH/9m5Z3RQY5zbO7fJYrWqyytp2y/areMs4wOt7YKWUmQHo9g+sDw39kRMD/RFwvyrX9eKtslnhyc99AANlLCQRsBnUbFg4wGIlvWXmXeYlIYQQQgghhBDSsKER9oHBBogEsPDsKtznnRGPgU0ATLS6vMn+EJZa3GKj4UUPcIeA5wDoyg2HRC/vFYt8r2bDZZEAd1tgpHoYHBHusAawUjeCHLmR0JsCerV36n+yRbyt3XX0jSfvvrwJcw7COTB8BHTTevfAZl4t70fFWHA8YOgCH/bU72T911vKfqGzBiGEEEIIIYT8ddm7oTFZAVEPGFjmMLDJndF70VbEC+MAk0Wx8ZE8Atv54V4B7tD8+Z0LfFBW5IsIWA60kJNDPREMYT2dUdUL5tRs18ALU987QG9d3cB503KzJg/d2Qwzb6FDBSWEEEIIIYQQcvM0hpx4C/scBjZPNtnsO4K/MvG4unHjOMBiBqy3h9W5Xpo/ryz+vXKISPIIYHlYMsw8fCUR5RCWc3to6Js0O1Jg4wIHOpsUOVyykKKLPvWGEEIIIYQQQsiTxC4paJ7DYChzGJg8B2y8M7x7AFMthCMF4lCevJ894WNTUlDI3Bt6iEn8C+C/0Qqui2SXabbgnhpcIFzIhKdp3l4qQ3k2QbHAT0OgM1bKQHof3KGGtSJ/7o0xLhe56xYeDGkqn95S66FhUZ8NkxmwHJX1QAqEI6A3a18fIMeGmsOlLlSIEEIIIYQQQshfi1aPbXUmwCrLMaEveG28M+DIv9/OlVCILjDfyqSZ+WJVfWpIdwqsp0r5MeSTMpSnc+QbC+tpWa5BzVNH9uEHmnwd4Jc3Wi4LRz75ZNnNZBzJ5JaBC0yzpJXxWMqOIfA4BEbdQt/tsOpl4AJ4OyrbZTs05NDI2p4r9WEIiEVR5D4qZOt0gNEIeDOTSVQ7HS30w6K+xv7I8YDVo6bHCMCjokf2lJMHrX/GHbkhNFWSfoZ9OTaSFjlcCCGEEEIIIYT8NegIIcSxlaQh0N2WF8GEEEIIIYQQQggh5+IkGxqEEEIIIYQQQgghl6RVyAkhhBBCCCGEEELIU4AbGoQQQgghhBBCCLk5/j/wxo1kL+LXugAAAABJRU5ErkJggg==;" vertex="1" parent="1">
          <mxGeometry x="270" y="1120" width="1076" height="189" as="geometry" />
        </mxCell>
        <mxCell id="4KCCKe6j0dbEFb28bn8k-2" style="edgeStyle=orthogonalEdgeStyle;rounded=0;orthogonalLoop=1;jettySize=auto;html=1;exitX=0.25;exitY=1;exitDx=0;exitDy=0;exitPerimeter=0;" edge="1" parent="1" source="6e0c8c40b5770093-56" target="4KCCKe6j0dbEFb28bn8k-1">
          <mxGeometry relative="1" as="geometry" />
        </mxCell>
      </root>
    </mxGraphModel>
  </diagram>
</mxfile>
